<?xml version="1.0" encoding="UTF-8"?>
<svg version="1.1" xmlns="http://www.w3.org/2000/svg" width="512" height="512">
<path d="M0 0 C28.44232794 -0.84024602 57.24456544 9.12201038 79.14453125 27.171875 C79.68480957 27.61192871 80.22508789 28.05198242 80.78173828 28.50537109 C101.28569416 45.49783468 112.69200775 67.04936334 120.14453125 92.171875 C120.40427734 93.04585938 120.66402344 93.91984375 120.93164062 94.8203125 C121.67003156 97.34868455 122.38288907 99.8823922 123.08203125 102.421875 C123.2936792 103.17114258 123.50532715 103.92041016 123.72338867 104.69238281 C125.20021817 110.31301103 126.87811408 116.96894386 123.98486328 122.31445312 C121.59969973 124.72176598 119.64905572 125.23159443 116.3828125 126.09375 C115.26455078 126.39667969 114.14628906 126.69960937 112.99414062 127.01171875 C111.24327148 127.46224609 111.24327148 127.46224609 109.45703125 127.921875 C107.68875977 128.39560547 107.68875977 128.39560547 105.88476562 128.87890625 C102.97460004 129.65652135 100.06148865 130.4202158 97.14453125 131.171875 C97.47775391 132.38431885 97.81097656 133.5967627 98.15429688 134.84594727 C112.95437014 189.12608424 112.95437014 189.12608424 105.14453125 210.171875 C104.79261719 211.17089844 104.44070313 212.16992188 104.078125 213.19921875 C96.96657042 231.81130713 83.10059805 245.21697537 65.39453125 253.81640625 C59.79548716 256.1515845 54.02330671 257.69348472 48.14453125 259.171875 C48.28890625 259.92210937 48.43328125 260.67234375 48.58203125 261.4453125 C51.15945537 275.6569427 50.81416734 287.3862156 42.8203125 299.8828125 C38.99338541 305.11027001 34.29469308 309.27023725 29.14453125 313.171875 C29.59183594 313.63335937 30.03914063 314.09484375 30.5 314.5703125 C40.16757424 325.00057384 42.62489712 334.70316757 42.4375 348.5859375 C42.15525959 355.55741894 39.99296883 361.39921863 36.14453125 367.171875 C36.94117188 367.19765625 37.7378125 367.2234375 38.55859375 367.25 C49.45408663 367.83321373 49.45408663 367.83321373 54.14453125 372.171875 C57.71840562 376.69447141 58.63325941 379.58127764 58.53515625 385.3203125 C58.52949646 385.97770416 58.52383667 386.63509583 58.51800537 387.31240845 C58.495794 389.39133691 58.44563545 391.46847663 58.39453125 393.546875 C58.37444614 394.96481868 58.3561989 396.38278965 58.33984375 397.80078125 C58.29598192 401.25838377 58.22706562 404.71495451 58.14453125 408.171875 C60.70789379 408.05741228 63.2696657 407.93067999 65.83203125 407.796875 C66.91387695 407.75046875 66.91387695 407.75046875 68.01757812 407.703125 C73.82991381 407.39073974 73.82991381 407.39073974 79.14453125 405.171875 C80.82564044 401.754343 81.39458541 398.9802426 81.39608765 395.19371033 C81.40147049 394.21657578 81.40685333 393.23944122 81.41239929 392.23269653 C81.4062133 390.64205887 81.4062133 390.64205887 81.39990234 389.01928711 C81.4035228 387.89356796 81.40714325 386.76784882 81.41087341 385.60801697 C81.41776178 383.16627246 81.4202739 380.72451257 81.41892624 378.28275871 C81.41796165 374.42078586 81.43089443 370.55909179 81.44790649 366.69715881 C81.4942082 355.71796734 81.51888135 344.73880705 81.52539062 333.75952148 C81.52954076 327.0428094 81.55458726 320.32643085 81.59071732 313.60980415 C81.6005374 311.04811924 81.60283531 308.48639425 81.59754562 305.92469597 C81.59050424 302.34783373 81.60769704 298.77184771 81.63037109 295.19506836 C81.61811241 293.60139435 81.61811241 293.60139435 81.60560608 291.9755249 C81.68614196 284.85668982 81.68614196 284.85668982 83.92276001 281.51527405 C86.27226356 280.09464137 87.48854484 279.66684129 90.20703125 279.65429688 C91.38845703 279.63538391 91.38845703 279.63538391 92.59375 279.61608887 C93.85638672 279.62823425 93.85638672 279.62823425 95.14453125 279.640625 C96.01722656 279.6367981 96.88992188 279.63297119 97.7890625 279.62902832 C99.63152217 279.6263101 101.47402049 279.63366506 103.31640625 279.65039062 C106.13499059 279.67180252 108.9510261 279.65058699 111.76953125 279.625 C113.56120354 279.62764329 115.35287424 279.63276831 117.14453125 279.640625 C117.98628906 279.63252808 118.82804687 279.62443115 119.6953125 279.61608887 C120.87673828 279.63500183 120.87673828 279.63500183 122.08203125 279.65429688 C122.77167969 279.65747925 123.46132813 279.66066162 124.171875 279.66394043 C127.21636136 280.44785799 128.24662069 281.6577135 130.14453125 284.171875 C130.74626937 287.15316093 130.68403602 290.09703664 130.65246582 293.12988281 C130.65870578 294.04519398 130.66494575 294.96050514 130.6713748 295.90355301 C130.68735876 298.97762893 130.67467928 302.05091787 130.66210938 305.125 C130.66752808 307.32597314 130.67464932 309.52694266 130.68334961 311.72790527 C130.70161566 317.71130736 130.69450176 323.69443417 130.68183327 329.67784119 C130.67172265 335.93269607 130.68109355 342.18752702 130.68737793 348.44238281 C130.69512672 359.62062712 130.68267785 370.79877016 130.66234058 381.97699022 C130.64446934 392.11362857 130.64757338 402.2500837 130.66601562 412.38671875 C130.6874184 424.15610905 130.69539154 435.92541008 130.68356657 447.6948204 C130.6773229 453.9257014 130.67652007 460.15645616 130.68971252 466.3873291 C130.70124713 472.24457901 130.69328875 478.10148211 130.6701355 483.95869446 C130.66483565 486.11138838 130.66638385 488.26411137 130.67518616 490.41679382 C130.68607469 493.34954883 130.67245884 496.28118405 130.65246582 499.21386719 C130.66138871 500.07105976 130.67031159 500.92825233 130.67950487 501.81142044 C130.60330282 507.55180575 130.60330282 507.55180575 128.27404022 510.70000458 C125.55692097 512.57801848 123.90382463 512.6787006 120.61328125 512.68945312 C119.50533203 512.70206177 118.39738281 512.71467041 117.25585938 512.72766113 C116.06412109 512.71956421 114.87238281 512.71146729 113.64453125 512.703125 C112.41669922 512.7069519 111.18886719 512.71077881 109.92382812 512.71472168 C107.32811666 512.71744342 104.73237789 512.71006411 102.13671875 512.69335938 C98.15953526 512.67195575 94.18415843 512.69315463 90.20703125 512.71875 C87.68619392 512.71610677 85.16535772 512.71098191 82.64453125 512.703125 C81.45279297 512.71122192 80.26105469 512.71931885 79.03320312 512.72766113 C77.3712793 512.70874817 77.3712793 512.70874817 75.67578125 512.68945312 C74.70189453 512.68627075 73.72800781 512.68308838 72.72460938 512.67980957 C69.38300743 512.0219554 68.19224135 510.85226654 66.14453125 508.171875 C65.79543075 505.2822238 65.67637505 502.7859479 65.75390625 499.90625 C65.75956604 499.11285217 65.76522583 498.31945435 65.77105713 497.50201416 C65.79339978 494.97468027 65.84358949 492.44877835 65.89453125 489.921875 C65.91459911 488.20574968 65.93284938 486.48960208 65.94921875 484.7734375 C65.9932573 480.5723672 66.06226799 476.37236365 66.14453125 472.171875 C65.35463303 472.18075745 64.5647348 472.18963989 63.75090027 472.1987915 C56.26384376 472.27933255 48.7770008 472.34003827 41.28962231 472.37912369 C37.4413455 472.3998943 33.59343017 472.42801572 29.74536133 472.47363281 C26.02354248 472.51747123 22.30206871 472.541091 18.58001137 472.55138397 C17.1683847 472.55870794 15.75677438 472.57300767 14.34529686 472.59479523 C1.11253164 472.79071309 -9.10788481 470.4772245 -18.85546875 461.171875 C-27.83498069 451.76561398 -30.30652609 442.33937142 -30.06030273 429.65820312 C-30.00578216 427.82896525 -29.93263547 426.00029754 -29.85546875 424.171875 C-30.79648437 424.21828125 -31.7375 424.2646875 -32.70703125 424.3125 C-42.883741 424.60747709 -42.883741 424.60747709 -47.48046875 422.546875 C-51.91858122 418.10876253 -54.29558764 414.58729077 -54.41125488 408.15722656 C-54.3991095 407.05072754 -54.3991095 407.05072754 -54.38671875 405.921875 C-54.39054565 405.14553711 -54.39437256 404.36919922 -54.39831543 403.56933594 C-54.40102529 401.9355336 -54.39372906 400.3016872 -54.37695312 398.66796875 C-54.35552746 396.17869604 -54.37678341 393.69230882 -54.40234375 391.203125 C-54.39970031 389.60936868 -54.39457498 388.01561415 -54.38671875 386.421875 C-54.39481567 385.68420898 -54.4029126 384.94654297 -54.41125488 384.18652344 C-54.31870619 379.04164421 -53.06758998 376.14934986 -49.85546875 372.171875 C-44.55705356 367.27084095 -38.74049821 367.39469149 -31.85546875 367.171875 C-32.20480469 366.49640625 -32.55414063 365.8209375 -32.9140625 365.125 C-33.36910156 364.23296875 -33.82414062 363.3409375 -34.29296875 362.421875 C-34.74542969 361.54015625 -35.19789063 360.6584375 -35.6640625 359.75 C-38.04568612 354.59632266 -38.0384563 349.88328906 -38.04296875 344.296875 C-38.05521484 343.50667969 -38.06746094 342.71648437 -38.08007812 341.90234375 C-38.09167825 337.25455952 -37.63421586 333.54492127 -35.85546875 329.171875 C-36.726875 329.09710938 -37.59828125 329.02234375 -38.49609375 328.9453125 C-50.12315734 327.66180548 -60.03729428 324.30775713 -68.10546875 315.5 C-72.58880266 309.53556471 -75.52329138 303.27675121 -76.93212891 295.96435547 C-77.1066861 295.0661911 -77.28124329 294.16802673 -77.46109009 293.24264526 C-77.65630753 292.21761398 -77.65630753 292.21761398 -77.85546875 291.171875 C-79.26795898 291.54575348 -79.26795898 291.54575348 -80.70898438 291.92718506 C-98.99184053 296.7638445 -117.2834988 301.56346351 -135.60546875 306.25 C-136.42427835 306.45947077 -137.24308796 306.66894154 -138.08670998 306.8847599 C-145.79041828 308.85486854 -153.49532249 310.82028353 -161.20053101 312.78451538 C-166.60015162 314.16108703 -171.99944569 315.53893296 -177.3984375 316.91796875 C-178.2786727 317.14275091 -179.15890789 317.36753307 -180.06581688 317.59912682 C-190.97941503 320.38795528 -201.88069103 323.2177807 -212.7638588 326.12313461 C-215.91396392 326.9633114 -219.06553242 327.79797291 -222.21679688 328.63378906 C-226.70862139 329.82564629 -231.19445161 331.03720316 -235.67773438 332.26074219 C-260.68699204 338.97015651 -260.68699204 338.97015651 -272.44921875 333.56640625 C-277.00498915 330.92613022 -280.93381734 327.66667999 -284.85546875 324.171875 C-285.4484375 323.66140625 -286.04140625 323.1509375 -286.65234375 322.625 C-322.87477678 289.16237139 -341.54779413 222.26207861 -344.33984375 174.73046875 C-344.4284668 173.46460938 -344.51708984 172.19875 -344.60839844 170.89453125 C-344.76944449 168.42728031 -344.88187432 165.9562284 -344.93847656 163.484375 C-345.17229916 160.00987064 -345.4669403 157.3710057 -346.85546875 154.171875 C-350.56137221 151.35203794 -354.54130171 149.84753393 -358.85546875 148.171875 C-370.68430797 139.93472849 -376.32550376 128.81279499 -379.85546875 115.171875 C-380.08105469 114.41777344 -380.30664062 113.66367188 -380.5390625 112.88671875 C-381.88271252 108.22564315 -382.92092943 102.9754774 -381.85546875 98.171875 C-378.61282003 93.96843426 -374.75062964 92.95466988 -369.79882812 91.72900391 C-369.00439049 91.52072779 -368.20995285 91.31245167 -367.39144135 91.09786415 C-364.8825357 90.44318751 -362.36931862 89.80726575 -359.85546875 89.171875 C-358.30734296 88.76998307 -356.75956358 88.36675405 -355.2121582 87.96209717 C-351.24801398 86.92914323 -347.2795613 85.91397752 -343.30921936 84.90513229 C-340.65779391 84.2314052 -338.00700152 83.55523101 -335.35632324 82.87857056 C-330.63838262 81.67458453 -325.91992995 80.47261977 -321.20129395 79.2713623 C-313.76961202 77.37941222 -306.33830987 75.48597692 -298.90768433 73.5898819 C-297.06424281 73.11948952 -295.22075746 72.64926886 -293.37722778 72.17922211 C-282.83602873 69.49044007 -272.30259842 66.77430748 -261.78125 64.00878906 C-260.80223473 63.75153612 -259.82321945 63.49428318 -258.81453705 63.2292347 C-254.1090025 61.99184963 -249.40449638 60.7507055 -244.70129395 59.50448608 C-243.02548007 59.0623677 -241.34965857 58.62027824 -239.67382812 58.17822266 C-238.90684097 57.97375141 -238.13985382 57.76928017 -237.34962463 57.55861282 C-232.08157521 56.171875 -232.08157521 56.171875 -229.85546875 56.171875 C-230.0477002 55.48150146 -230.23993164 54.79112793 -230.43798828 54.07983398 C-231.30427876 50.92783688 -232.14253105 47.76902216 -232.98046875 44.609375 C-233.28339844 43.52333984 -233.58632812 42.43730469 -233.8984375 41.31835938 C-236.7183094 30.53070989 -236.7183094 30.53070989 -233.85546875 25.171875 C-229.98638148 22.93547138 -226.19938783 21.56336833 -221.88525391 20.4543457 C-220.73030426 20.15426102 -219.57535461 19.85417633 -218.38540649 19.54499817 C-217.15091766 19.23237534 -215.91642883 18.9197525 -214.64453125 18.59765625 C-213.34939366 18.26596603 -212.05434092 17.93394432 -210.7593689 17.60160828 C-208.05233117 16.90869633 -205.34402505 16.22103659 -202.63476562 15.53686523 C-199.18006285 14.66381584 -195.72938606 13.77588861 -192.27958107 12.88370991 C-189.60797117 12.1949153 -186.93413625 11.51509917 -184.25959396 10.83778954 C-182.37279093 10.35802046 -180.48807803 9.87005518 -178.60342407 9.38191223 C-166.69961027 6.40273272 -166.69961027 6.40273272 -160.85546875 7.171875 C-157.30715107 9.65891556 -156.22827799 12.17974863 -155.1875 16.3046875 C-154.93419922 17.27535156 -154.68089844 18.24601562 -154.41992188 19.24609375 C-154.17177734 20.25285156 -153.92363281 21.25960938 -153.66796875 22.296875 C-153.15513318 24.29986057 -152.64088065 26.30248405 -152.125 28.3046875 C-151.90432861 29.19043457 -151.68365723 30.07618164 -151.45629883 30.98876953 C-150.92534709 33.19365474 -150.92534709 33.19365474 -149.85546875 35.171875 C-148.69877686 34.87643799 -147.54208496 34.58100098 -146.3503418 34.27661133 C-135.29398249 31.45275991 -124.23740139 28.62977829 -113.18061829 25.80758667 C-107.50018841 24.35765579 -101.81982942 22.90744862 -96.13964844 21.45654297 C-82.31526472 17.92551965 -68.48920024 14.40118479 -54.66088486 10.8855896 C-51.99498831 10.20736961 -49.32942386 9.52786152 -46.66397095 8.84790039 C-42.87749203 7.88228669 -39.08989329 6.92121634 -35.30119324 5.96435547 C-33.36649203 5.47469903 -31.432913 4.98061511 -29.49938965 4.48632812 C-19.63482048 2.00504126 -10.14646607 0.6107312 0 0 Z M-32.25 22.63671875 C-33.61446099 22.98532204 -34.97911694 23.33316297 -36.34394836 23.68031311 C-40.0177141 24.61701419 -43.68869022 25.56423735 -47.35923004 26.51348877 C-51.30868089 27.53284335 -55.26069271 28.54217916 -59.21240234 29.55273438 C-65.83230584 31.24696998 -72.45066585 32.94711277 -79.06787109 34.65185547 C-87.47052751 36.81656588 -95.87547244 38.97222525 -104.2814846 41.12386322 C-130.80047225 47.91245454 -157.30871759 54.7428392 -183.81770134 61.57036591 C-186.97347653 62.38314176 -190.12926124 63.19588062 -193.28504944 64.00860596 C-194.33777259 64.27971947 -195.39049574 64.55083298 -196.47511959 64.83016205 C-198.61778107 65.3819703 -200.76044376 65.93377387 -202.90310764 66.48557281 C-208.28225211 67.87088377 -213.66135547 69.25635393 -219.04037476 70.64215088 C-242.33161801 76.642506 -265.62572933 82.63122793 -288.9296875 88.58203125 C-290.94013533 89.09554292 -292.95058252 89.60905709 -294.96102905 90.12257385 C-303.48173946 92.29865393 -312.00276652 94.47346735 -320.52509594 96.64319897 C-323.95783621 97.51752814 -327.39017467 98.39342717 -330.82242775 99.26966667 C-332.38870478 99.66912691 -333.95516216 100.06788089 -335.52182579 100.46582222 C-345.01538316 102.87740487 -354.45318517 105.42387059 -363.85546875 108.171875 C-360.77452384 119.5595175 -357.69229033 128.6409289 -347.20703125 134.953125 C-336.89506965 140.29753035 -327.43964652 139.98829296 -316.40429688 137.05493164 C-315.51273014 136.82833422 -314.62116341 136.60173679 -313.7025795 136.36827278 C-310.7609037 135.61758291 -307.82394093 134.84994527 -304.88671875 134.08203125 C-302.7928464 133.54383697 -300.69870335 133.00669491 -298.60430908 132.47053528 C-294.1575218 131.32979688 -289.71275371 130.18160147 -285.26940918 129.02752686 C-278.3332731 127.2263986 -271.39207504 125.44534354 -264.45019531 123.66650391 C-244.75737602 118.61436961 -225.07678997 113.51878573 -205.43002319 108.29024315 C-200.89718354 107.08587129 -196.3617542 105.89127373 -191.8263855 104.69646549 C-188.4137832 103.79577832 -185.00414629 102.88601708 -181.59985352 101.95437622 C-142.51439442 91.26172574 -142.51439442 91.26172574 -124.08203125 101.75 C-121.54757952 103.43963449 -119.20040564 105.22952019 -116.85546875 107.171875 C-116.21996094 107.67203125 -115.58445312 108.1721875 -114.9296875 108.6875 C-107.68038027 115.05274537 -103.81079334 124.90581839 -100.98046875 133.921875 C-98.11278848 142.16038018 -92.29175366 148.23062361 -84.60546875 152.234375 C-73.85752547 157.16929667 -64.37081328 154.81264739 -53.4140625 151.85546875 C-52.11979314 151.51554139 -50.82519494 151.17686385 -49.5302887 150.83937073 C-44.06598626 149.4124543 -38.60848218 147.96016369 -33.15161133 146.50512695 C-29.79952737 145.61226581 -26.44424076 144.73236821 -23.08683968 143.85972786 C-21.20144677 143.36527299 -19.32007447 142.85556768 -17.43882751 142.3455658 C-6.29245123 139.44635421 -6.29245123 139.44635421 -0.85546875 141.171875 C1.99560073 145.44847922 1.27408495 149.18405772 1.14453125 154.171875 C-6.11277734 156.41760034 -13.41550475 158.40158753 -20.77734375 160.2734375 C-21.88096252 160.55536957 -22.9845813 160.83730164 -24.12164307 161.1277771 C-26.43743528 161.7187236 -28.75349997 162.30860329 -31.06982422 162.89746094 C-34.60993202 163.79801039 -38.14875485 164.70348761 -41.6875 165.609375 C-43.94653901 166.18519238 -46.2056511 166.76072321 -48.46484375 167.3359375 C-50.04468048 167.74061752 -50.04468048 167.74061752 -51.65643311 168.1534729 C-67.93828056 172.28042633 -82.47699782 172.64042294 -97.42578125 163.7578125 C-107.59895887 157.11744254 -112.8836227 148.4018064 -116.85546875 137.046875 C-120.52554224 126.64914362 -125.84848929 119.33622142 -135.85546875 114.171875 C-147.12912309 109.75648683 -157.85067016 112.47611056 -168.85546875 116.171875 C-168.59443359 116.79827881 -168.33339844 117.42468262 -168.06445312 118.07006836 C-151.25731246 158.63458801 -139.65953947 200.9329714 -139.60546875 245.109375 C-139.603797 245.83365692 -139.60212524 246.55793884 -139.60040283 247.3041687 C-139.59837241 262.02896517 -141.16838225 275.92048412 -144.85546875 290.171875 C-135.3614996 288.66206473 -126.11364568 286.30090296 -116.81640625 283.90234375 C-115.12484522 283.46891385 -113.43320274 283.03580173 -111.7414856 282.60298157 C-107.18447134 281.4359645 -102.62873631 280.26402635 -98.07327271 279.0909729 C-94.25954381 278.10950668 -90.44511648 277.13077029 -86.63069534 276.15199852 C-73.70321897 272.83459963 -60.77883074 269.50526162 -47.85546875 266.171875 C-46.88537369 265.92167854 -45.91527863 265.67148209 -44.91578674 265.41370392 C-31.92892999 262.06400445 -18.94359292 258.70846296 -5.95996857 255.34625626 C-3.38277924 254.67894648 -0.8054992 254.01198794 1.77178955 253.34506226 C23.90592284 247.61822526 23.90592284 247.61822526 46.00390625 241.75390625 C47.28400574 241.4144397 47.28400574 241.4144397 48.58996582 241.06811523 C63.66994566 236.96960965 75.62440254 228.45197357 84.14453125 215.171875 C94.698865 195.55091945 91.82264395 176.77231614 86.20703125 156.109375 C85.73166261 154.28634356 85.25834575 152.46277584 84.78710938 150.63867188 C82.98315015 142.71439998 82.98315015 142.71439998 80.14453125 135.171875 C75.19453125 135.171875 70.24453125 135.171875 65.14453125 135.171875 C64.25238473 132.49543543 64.00912914 130.91803122 64.01953125 128.171875 C64.01695312 127.49125 64.014375 126.810625 64.01171875 126.109375 C64.14453125 124.171875 64.14453125 124.171875 65.14453125 121.171875 C67.54740192 120.40732524 69.80710057 119.85080251 72.26953125 119.359375 C73.80275129 119.02781344 75.33526759 118.69298637 76.8671875 118.35546875 C78.12233154 118.08065674 78.12233154 118.08065674 79.40283203 117.80029297 C84.53379469 116.62423795 89.61768232 115.26477684 94.70703125 113.921875 C96.25124756 113.51618286 96.25124756 113.51618286 97.82666016 113.10229492 C100.2664388 112.46065007 102.7057296 111.81722143 105.14453125 111.171875 C106.0371186 107.62338169 106.18328111 105.21124583 105.2109375 101.6875 C104.86240723 100.42111694 104.86240723 100.42111694 104.50683594 99.12915039 C104.24290039 98.23574951 103.97896484 97.34234863 103.70703125 96.421875 C103.43407227 95.49173584 103.16111328 94.56159668 102.87988281 93.60327148 C94.22854564 65.25875891 76.56949645 43.0665576 50.39941406 28.95874023 C23.8209147 15.21313785 -3.78851358 15.22512006 -32.25 22.63671875 Z M-179.16503906 27.18164062 C-180.42589325 27.51198303 -180.42589325 27.51198303 -181.71221924 27.84899902 C-182.61027283 28.0896106 -183.50832642 28.33022217 -184.43359375 28.578125 C-185.36016785 28.82228149 -186.28674194 29.06643799 -187.24139404 29.31799316 C-190.19732331 30.098024 -193.15139281 30.8848577 -196.10546875 31.671875 C-198.11055826 32.20227231 -200.11576529 32.73222559 -202.12109375 33.26171875 C-207.03392996 34.55995783 -211.94510933 35.86430054 -216.85546875 37.171875 C-215.53546875 42.121875 -214.21546875 47.071875 -212.85546875 52.171875 C-191.07546875 46.726875 -191.07546875 46.726875 -168.85546875 41.171875 C-167.90039543 36.39650839 -167.85414335 35.1758512 -169.29296875 30.859375 C-169.58042969 29.97636719 -169.86789063 29.09335937 -170.1640625 28.18359375 C-170.50630859 27.18779297 -170.50630859 27.18779297 -170.85546875 26.171875 C-174.09646313 26.171875 -176.12931673 26.37699133 -179.16503906 27.18164062 Z M-193.01171875 121.70068359 C-193.65399414 121.86328171 -194.29626953 122.02587982 -194.95800781 122.19340515 C-201.66601628 123.89374895 -208.37027445 125.60891033 -215.07421875 127.32519531 C-218.26062021 128.14045581 -221.44813595 128.95112649 -224.63671875 129.7578125 C-228.4781781 130.72970011 -232.31754184 131.70947497 -236.15551758 132.6950264 C-237.62208401 133.07019982 -239.08937453 133.44255404 -240.55737305 133.8120842 C-242.60668544 134.32856546 -244.65314619 134.85513005 -246.69921875 135.38427734 C-247.86646484 135.68183929 -249.03371094 135.97940125 -250.23632812 136.28598022 C-253.00241523 136.87911566 -253.00241523 136.87911566 -253.85546875 139.171875 C-252.79809373 141.86478038 -251.67047868 144.47525952 -250.48046875 147.109375 C-229.26136176 196.06674064 -217.10615774 255.10900982 -228.90869141 307.93432617 C-229.08663239 308.73174728 -229.26457336 309.5291684 -229.44790649 310.35075378 C-229.64964981 311.25220879 -229.64964981 311.25220879 -229.85546875 312.171875 C-217.44449763 309.50371212 -205.11655011 306.57508151 -192.82788086 303.39013672 C-190.94944125 302.90566496 -189.06950897 302.42694909 -187.18823242 301.95361328 C-184.42165609 301.25739507 -181.65979485 300.54472633 -178.8984375 299.828125 C-178.06201218 299.62070679 -177.22558685 299.41328857 -176.36381531 299.19958496 C-170.81630207 297.73175878 -166.77379706 295.92756884 -163.37890625 291.05078125 C-156.50988815 277.19592501 -155.61762802 262.4384041 -155.60546875 247.234375 C-155.60479401 246.47755432 -155.60411926 245.72073364 -155.60342407 244.940979 C-155.66216726 203.28601837 -165.39400631 156.76178431 -185.85546875 120.171875 C-188.21993075 120.171875 -190.7531417 121.12799136 -193.01171875 121.70068359 Z M-277.85546875 143.484375 C-278.94859375 143.72800781 -280.04171875 143.97164062 -281.16796875 144.22265625 C-282.05484375 144.53589844 -282.94171875 144.84914062 -283.85546875 145.171875 C-285.07610037 148.83376987 -284.53711003 149.53666272 -283.01171875 152.9765625 C-282.59317627 153.94094238 -282.17463379 154.90532227 -281.7434082 155.89892578 C-281.28538818 156.93774902 -280.82736816 157.97657227 -280.35546875 159.046875 C-268.87999305 185.95060161 -261.22745631 214.07079991 -257.85546875 243.171875 C-257.76193115 243.91421387 -257.66839355 244.65655273 -257.57202148 245.42138672 C-256.71165623 252.8738141 -256.67179287 260.30160953 -256.66796875 267.796875 C-256.65572266 269.06789063 -256.64347656 270.33890625 -256.63085938 271.6484375 C-256.6206939 278.15434163 -256.74112866 283.98743023 -258.85546875 290.171875 C-261.29513637 292.4308265 -262.89386593 292.17329712 -266.23046875 292.296875 C-271.53651287 290.65017165 -273.03954122 287.80948076 -275.85546875 283.171875 C-276.52320313 282.10066406 -277.1909375 281.02945313 -277.87890625 279.92578125 C-300.59779985 242.21292442 -310.2104274 196.52868269 -313.85546875 153.171875 C-321.28046875 154.656875 -321.28046875 154.656875 -328.85546875 156.171875 C-326.86454035 206.94054919 -311.33566017 263.58765609 -279.85546875 304.171875 C-279.30117188 304.89890625 -278.746875 305.6259375 -278.17578125 306.375 C-273.23624331 312.51604717 -266.43402503 318.58914966 -258.41796875 319.609375 C-254.80861637 319.45404355 -254.80861637 319.45404355 -252.23046875 317.296875 C-236.10385093 296.07764102 -239.2946489 262.89117349 -242.37719727 238.03540039 C-246.88115627 205.15774043 -255.53363769 171.76316002 -270.85546875 142.171875 C-273.19598881 142.171875 -275.59457176 142.96447534 -277.85546875 143.484375 Z M-295.85546875 165.171875 C-295.37821357 186.99545275 -289.9116648 233.11567895 -273.85546875 249.171875 C-275.76807263 220.03546202 -284.53578705 192.30297706 -294.85546875 165.171875 C-295.18546875 165.171875 -295.51546875 165.171875 -295.85546875 165.171875 Z M19.74755859 265.28320312 C18.44501884 265.61970131 18.44501884 265.61970131 17.11616516 265.96299744 C14.23700046 266.70741222 11.35873863 267.45525858 8.48046875 268.203125 C6.48797978 268.71900151 4.49543554 269.23466457 2.50283813 269.75012207 C-2.74860222 271.10921193 -7.9992842 272.47120972 -13.24981689 273.83380127 C-18.60489428 275.22297902 -23.96067912 276.60942351 -29.31640625 277.99609375 C-39.83012384 280.71866975 -50.34304279 283.44431634 -60.85546875 286.171875 C-60.7173435 287.61214416 -60.57299387 289.05181728 -60.42602539 290.49121094 C-60.34630997 291.29298767 -60.26659454 292.0947644 -60.1844635 292.9208374 C-59.37836773 298.43628068 -56.03795459 303.37235366 -51.78515625 306.87890625 C-43.46860586 312.2033398 -34.82398499 312.21929988 -25.30566406 310.13378906 C-23.42780942 309.66683867 -21.55379393 309.18422126 -19.68359375 308.6875 C-18.6763324 308.43063416 -17.66907104 308.17376831 -16.63128662 307.90911865 C-14.5221022 307.36786263 -12.41469737 306.81962686 -10.30908203 306.26464844 C-7.10365752 305.42139852 -3.89249891 304.60366091 -0.6796875 303.7890625 C1.38189649 303.25670116 3.44310836 302.72289628 5.50390625 302.1875 C6.45303894 301.94565979 7.40217163 301.70381958 8.38006592 301.45465088 C17.32847201 299.07327342 24.91479079 296.17125995 30.14453125 288.171875 C33.30965658 282.21188428 34.24451413 276.22411077 32.46484375 269.66796875 C31.74498181 267.4775317 30.98011041 265.32050712 30.14453125 263.171875 C26.5918639 263.171875 23.17049635 264.39091411 19.74755859 265.28320312 Z M98.14453125 296.171875 C98.14088562 297.54472656 98.13723999 298.91757812 98.13348389 300.33203125 C98.09651727 313.27988899 98.03872587 326.22750927 97.96062851 339.17518616 C97.92114625 345.83149593 97.88896128 352.4876206 97.87353516 359.14404297 C97.85837386 365.5697555 97.82393658 371.99510392 97.77622223 378.4206543 C97.7614032 380.87016635 97.75348994 383.31973038 97.7526474 385.76928711 C97.7502777 389.20465764 97.7231954 392.639022 97.69042969 396.07421875 C97.69797523 397.5879734 97.69797523 397.5879734 97.70567322 399.13230896 C97.60016239 406.29868222 96.13666488 411.70448077 91.3984375 417.1953125 C90.84027344 417.64132812 90.28210938 418.08734375 89.70703125 418.546875 C88.87365234 419.23910156 88.87365234 419.23910156 88.0234375 419.9453125 C82.74528615 423.39092482 77.97105088 423.47554564 71.85620117 423.49072266 C70.92888184 423.50076828 70.0015625 423.5108139 69.04614258 423.52116394 C65.9891012 423.55198952 62.93214739 423.56902946 59.875 423.5859375 C57.75221504 423.60464963 55.62943751 423.62422308 53.50666809 423.6446228 C47.92542911 423.6959451 42.34416601 423.73557042 36.76281738 423.77276611 C31.06512486 423.81280505 25.36753266 423.86389793 19.66992188 423.9140625 C8.49486214 424.01082301 -2.68025424 424.0952275 -13.85546875 424.171875 C-13.8615918 425.43950684 -13.86771484 426.70713867 -13.87402344 428.01318359 C-13.87746765 428.7262265 -13.88091187 429.43926941 -13.88446045 430.17391968 C-13.77763999 437.5354233 -11.48395993 443.56930161 -6.21484375 448.80078125 C1.78274681 456.01599882 9.99844959 456.32457993 20.37255859 456.28540039 C21.40414911 456.28552093 22.43573963 456.28564146 23.49859047 456.28576565 C26.82590544 456.28502141 30.15316385 456.27741543 33.48046875 456.26953125 C35.53946913 456.26806032 37.59846988 456.26704054 39.6574707 456.26647949 C47.27816327 456.26124414 54.89884782 456.24728289 62.51953125 456.234375 C79.55578125 456.21375 96.59203125 456.193125 114.14453125 456.171875 C114.14453125 403.371875 114.14453125 350.571875 114.14453125 296.171875 C108.86453125 296.171875 103.58453125 296.171875 98.14453125 296.171875 Z M-17.41015625 331.07421875 C-21.5352477 337.06117581 -21.57155017 343.12122712 -20.85546875 350.171875 C-19.08204442 356.81660414 -14.40880405 361.34555459 -8.85546875 365.171875 C-2.85659871 368.11249757 4.02736655 368.27071288 10.45703125 366.5546875 C16.58585986 363.84938425 21.38405917 358.76323805 24.31640625 352.78125 C26.22258982 346.77497348 26.20891812 339.66895942 23.64453125 333.859375 C20.15990987 327.91939763 14.70997295 323.25551817 8.14453125 321.171875 C-3.28991972 319.81551254 -10.03364364 322.44541446 -17.41015625 331.07421875 Z M-37.85546875 384.171875 C-37.85546875 392.091875 -37.85546875 400.011875 -37.85546875 408.171875 C-11.45546875 408.171875 14.94453125 408.171875 42.14453125 408.171875 C42.14453125 400.251875 42.14453125 392.331875 42.14453125 384.171875 C15.74453125 384.171875 -10.65546875 384.171875 -37.85546875 384.171875 Z M82.14453125 472.171875 C82.14453125 480.091875 82.14453125 488.011875 82.14453125 496.171875 C92.70453125 496.171875 103.26453125 496.171875 114.14453125 496.171875 C114.14453125 488.251875 114.14453125 480.331875 114.14453125 472.171875 C103.58453125 472.171875 93.02453125 472.171875 82.14453125 472.171875 Z " fill="#000000" transform="translate(381.85546875,-0.171875)"/>
<path d="M0 0 C2.68976372 3.2435386 2.71891274 5.24700374 2.7890625 9.34375 C1.784077 12.70158392 0.04874963 13.70193205 -2.875 15.5625 C-6.3984375 16.828125 -6.3984375 16.828125 -10.25 17.8125 C-11.51585937 18.14765625 -12.78171875 18.4828125 -14.0859375 18.828125 C-19.08648899 19.79730405 -23.16485972 20.39937716 -27.8125 18.125 C-30.42236476 14.88244075 -30.46964665 12.83513545 -30.5390625 8.78125 C-29.52845012 5.40461568 -27.82951411 4.42029223 -24.875 2.5625 C-22.19072547 1.66311536 -19.67930061 0.93366931 -16.9375 0.3125 C-15.90206055 0.05339844 -15.90206055 0.05339844 -14.84570312 -0.2109375 C-9.54325755 -1.47749322 -4.98540255 -2.49270127 0 0 Z " fill="#000000" transform="translate(429.875,128.4375)"/>
<path d="M0 0 C2.5 1.5 2.5 1.5 4 4 C4.791013 8.02098277 4.62153384 10.96411027 2.5 14.5 C-1.03588973 16.62153384 -3.97901723 16.791013 -8 16 C-10.5 14.5 -10.5 14.5 -12 12 C-12.791013 7.97901723 -12.62153384 5.03588973 -10.5 1.5 C-6.96411027 -0.62153384 -4.02098277 -0.791013 0 0 Z " fill="#000000" transform="translate(388,336)"/>
</svg>
