<?xml version="1.0" encoding="UTF-8"?>
<svg version="1.1" xmlns="http://www.w3.org/2000/svg" width="512" height="512">
<path d="M0 0 C0.65819623 -0.00779995 1.31639245 -0.01559991 1.99453402 -0.02363622 C4.19285382 -0.04352846 6.38943694 -0.02780524 8.58776855 -0.01205444 C10.16659046 -0.0188319 11.74540445 -0.02773576 13.32420349 -0.03860474 C17.60736172 -0.0613898 21.88991747 -0.05256527 26.17308617 -0.03670931 C30.65642286 -0.02404611 35.13970814 -0.03579158 39.62304688 -0.04364014 C47.15190895 -0.05273549 54.68052575 -0.04075185 62.20935059 -0.01693726 C70.91245381 0.0102739 79.61497137 0.00145965 88.3180604 -0.02606928 C95.79168919 -0.04876266 103.26514173 -0.05195934 110.73879385 -0.03887594 C115.20190117 -0.03108265 119.66473326 -0.03003636 124.12782288 -0.04655838 C128.32398949 -0.06100733 132.51940141 -0.05097434 136.71548653 -0.0220871 C138.2549826 -0.01547845 139.79454224 -0.01737029 141.33401299 -0.02840042 C143.43699137 -0.0420783 145.53755611 -0.02491952 147.64038086 0 C149.40463032 0.00282769 149.40463032 0.00282769 151.20452118 0.00571251 C155.35244187 0.84338016 156.67366825 2.37269617 159.32019043 5.63491821 C159.94578558 8.82253176 159.94578558 8.82253176 159.94660282 12.50154972 C159.95357043 13.1831584 159.96053804 13.86476709 159.96771678 14.56703058 C159.98499321 16.85618629 159.96658079 19.14365657 159.94837952 21.43278503 C159.95342355 23.08830231 159.96065127 24.74381414 159.96987766 26.39931339 C159.98884723 30.95250816 159.97653985 35.50516755 159.95915473 40.05834901 C159.94580889 44.96706978 159.96120775 49.87571076 159.97297668 54.78442383 C159.99137805 64.40184807 159.98282448 74.01906946 159.96488846 83.63648743 C159.9508768 91.45051791 159.94696657 99.26449324 159.95033073 107.07853508 C159.9510469 108.74516635 159.9510469 108.74516635 159.95177753 110.44546695 C159.95280383 112.70243337 159.95385919 114.95939977 159.95494329 117.21636616 C159.9635153 137.18364227 159.94681864 157.15082027 159.91711426 177.11807251 C159.88827179 196.50613526 159.88119451 215.89405669 159.89660645 235.28213501 C159.91335555 256.38134543 159.9174163 277.48048873 159.89989609 298.57970089 C159.89805164 300.82817295 159.89621692 303.07664503 159.89439201 305.32511711 C159.89347992 306.43148754 159.89256783 307.53785797 159.89162811 308.67775478 C159.88601498 316.48560108 159.88933708 324.29341469 159.89593697 332.10125923 C159.90365674 341.61175028 159.89696646 351.12210205 159.87176193 360.63256497 C159.85923579 365.4877287 159.85315798 370.34267527 159.86430359 375.19784737 C159.8743052 379.63841773 159.86597404 384.07855393 159.84272241 388.51907121 C159.83754031 390.12933834 159.83916572 391.73964401 159.84811706 393.34989459 C159.85924159 395.53183169 159.84595913 397.71228256 159.8263483 399.89412785 C159.82515682 401.10804142 159.82396534 402.321955 159.82273775 403.57265383 C159.32019043 406.63491821 159.32019043 406.63491821 157.81056637 409.02475733 C154.28326497 411.30534584 151.03356996 411.18605626 146.96801758 411.13828278 C146.11366025 411.14409654 145.25930292 411.1499103 144.37905598 411.15590024 C141.49652178 411.17057793 138.61482876 411.15657887 135.7322998 411.14285278 C133.65279452 411.14745862 131.57329248 411.1538094 129.4937973 411.16176176 C123.76407599 411.17852168 118.0346198 411.17017846 112.30489731 411.15781689 C106.13167233 411.14879592 99.95849412 411.16272141 93.78527832 411.17373657 C82.38580358 411.19052708 70.9864374 411.18902723 59.58696532 411.1780907 C49.05686914 411.16803756 38.5268041 411.16539742 27.9967041 411.17018127 C27.29884078 411.17048681 26.60097746 411.17079236 25.88196677 411.17110715 C23.04927553 411.17235246 20.21658431 411.17362606 17.3838931 411.17494621 C-9.20138897 411.18718853 -35.78661694 411.17607836 -62.37189066 411.15455862 C-86.00320512 411.13557549 -109.63443337 411.13727397 -133.26574707 411.15640259 C-159.80168735 411.17781047 -186.33757981 411.1863204 -212.87352753 411.17395353 C-215.70112609 411.17267062 -218.52872466 411.17141926 -221.35632324 411.17018127 C-222.05257539 411.16986496 -222.74882754 411.16954866 -223.46617824 411.16922276 C-233.99093368 411.16466846 -244.51565461 411.17000216 -255.04040527 411.18009949 C-267.00478267 411.19152059 -278.9690582 411.18832511 -290.93343163 411.16697651 C-297.04221759 411.15643693 -303.15082822 411.15239374 -309.25961304 411.16557312 C-314.84559591 411.17744265 -320.43124 411.1710246 -326.01719189 411.14966291 C-328.04404456 411.14517369 -330.07092553 411.14751464 -332.0977602 411.15716606 C-334.84146608 411.16923461 -337.58399362 411.15695282 -340.32763672 411.13828278 C-341.52304471 411.15232977 -341.52304471 411.15232977 -342.74260235 411.16666055 C-346.24871323 411.11859081 -348.29695911 410.91303596 -351.17018551 408.82581043 C-353.39531493 405.59651721 -353.23593142 402.48583108 -353.19447327 398.70193481 C-353.20141879 397.89687956 -353.20836432 397.09182431 -353.21552032 396.26237345 C-353.233835 393.56140446 -353.22351388 390.86130939 -353.21325684 388.16030884 C-353.22031302 386.22534018 -353.22905676 384.29037704 -353.23936462 382.35542297 C-353.26190091 377.09720435 -353.25890915 371.83928611 -353.25004315 366.58103752 C-353.24494009 362.1945886 -353.2522202 357.80819648 -353.25951523 353.42175341 C-353.27652737 343.07625413 -353.27293471 332.73090231 -353.25622559 322.38540649 C-353.23929712 311.7038795 -353.25514592 301.02276094 -353.28744847 290.34127855 C-353.31411568 281.17684922 -353.3214283 272.01254726 -353.31293339 262.84808302 C-353.3079965 257.37168787 -353.31026111 251.89553863 -353.3307209 246.41917419 C-353.34903329 241.27099565 -353.34317373 236.12340636 -353.3185215 230.97525978 C-353.31349974 229.08379729 -353.31703859 227.19229024 -353.32966995 225.30086327 C-353.3455291 222.72252568 -353.33071891 220.14614559 -353.30799866 217.56790161 C-353.31983439 216.81576464 -353.33167011 216.06362767 -353.3438645 215.28869867 C-353.27622182 211.52198787 -352.97321315 209.94464347 -350.34240627 207.1674881 C-346.96286126 205.22224836 -344.73317309 205.17582811 -340.84777832 205.24429321 C-339.55549316 205.25718384 -338.26320801 205.27007446 -336.9317627 205.28335571 C-335.57693411 205.31677187 -334.2221164 205.35063159 -332.86730957 205.38491821 C-331.4929864 205.40499787 -330.11863518 205.42324608 -328.7442627 205.43960571 C-325.38873101 205.48670089 -322.0346283 205.55246686 -318.67980957 205.63491821 C-318.70075684 204.7826062 -318.7217041 203.93029419 -318.74328613 203.05215454 C-318.81166201 199.87462388 -318.86170695 196.69746951 -318.89953613 193.5194397 C-318.91958947 192.14691798 -318.94683985 190.77448104 -318.98156738 189.4022522 C-319.03035509 187.42419777 -319.05069834 185.44550703 -319.07043457 183.46694946 C-319.09138184 182.27819214 -319.1123291 181.08943481 -319.13391113 179.86465454 C-318.57266566 175.87287154 -317.72392897 174.27675269 -314.67980957 171.63491821 C-311.38000488 171.06729126 -311.38000488 171.06729126 -307.50793457 171.14663696 C-306.82551697 171.1537117 -306.14309937 171.16078644 -305.44000244 171.16807556 C-303.26880396 171.195978 -301.10022289 171.25869569 -298.92980957 171.32241821 C-297.45458651 171.34750704 -295.97932286 171.37031921 -294.50402832 171.39077759 C-290.89414594 171.44153521 -287.28989206 171.53935721 -283.67980957 171.63491821 C-283.67980957 177.57491821 -283.67980957 183.51491821 -283.67980957 189.63491821 C-289.28980957 189.63491821 -294.89980957 189.63491821 -300.67980957 189.63491821 C-300.67980957 194.91491821 -300.67980957 200.19491821 -300.67980957 205.63491821 C-289.78980957 205.63491821 -278.89980957 205.63491821 -267.67980957 205.63491821 C-267.67980957 194.41491821 -267.67980957 183.19491821 -267.67980957 171.63491821 C-261.73980957 171.63491821 -255.79980957 171.63491821 -249.67980957 171.63491821 C-249.67980957 182.85491821 -249.67980957 194.07491821 -249.67980957 205.63491821 C-238.78980957 205.63491821 -227.89980957 205.63491821 -216.67980957 205.63491821 C-216.67980957 200.35491821 -216.67980957 195.07491821 -216.67980957 189.63491821 C-222.28980957 189.63491821 -227.89980957 189.63491821 -233.67980957 189.63491821 C-233.67980957 183.69491821 -233.67980957 177.75491821 -233.67980957 171.63491821 C-229.49716407 171.51979953 -225.32005571 171.42039472 -221.13708496 171.36026001 C-219.71599666 171.33518674 -218.29503644 171.30111823 -216.87438965 171.25772095 C-214.82613495 171.19673963 -212.77959074 171.16864059 -210.73059082 171.14663696 C-209.49993896 171.12045288 -208.26928711 171.0942688 -207.00134277 171.06729126 C-203.67980957 171.63491821 -203.67980957 171.63491821 -198.67980957 176.63491821 C-198.67980957 186.20491821 -198.67980957 195.77491821 -198.67980957 205.63491821 C-136.96980957 205.63491821 -75.25980957 205.63491821 -11.67980957 205.63491821 C-11.73781738 191.25542603 -11.7958252 176.87593384 -11.85559082 162.06069946 C-11.88112852 152.96889812 -11.90540414 143.87712267 -11.9239502 134.78530884 C-11.95364481 120.34389391 -11.98859623 105.90262459 -12.05700684 91.46133423 C-12.10680123 80.94487231 -12.13909099 70.42852825 -12.15025204 59.91195172 C-12.15677746 54.34207044 -12.17214175 48.77252639 -12.20845985 43.20275307 C-12.24235649 37.96195799 -12.25287524 32.7216396 -12.24534798 27.48074532 C-12.24672535 25.5558132 -12.2566954 23.63086542 -12.27583694 21.70602798 C-12.30067639 19.079752 -12.29474864 16.45528105 -12.28108215 13.82896423 C-12.29564636 13.06533878 -12.31021057 12.30171333 -12.32521611 11.51494771 C-12.27171543 7.71740842 -11.7834734 5.78025868 -9.55971813 2.66247272 C-6.07297868 0.20768843 -4.23785064 0.00679231 0 0 Z M6.32019043 18.63491821 C6.32019043 51.96491821 6.32019043 85.29491821 6.32019043 119.63491821 C50.87019043 119.63491821 95.42019043 119.63491821 141.32019043 119.63491821 C141.32019043 86.30491821 141.32019043 52.97491821 141.32019043 18.63491821 C96.77019043 18.63491821 52.22019043 18.63491821 6.32019043 18.63491821 Z M6.32019043 137.63491821 C6.32019043 221.78491821 6.32019043 305.93491821 6.32019043 392.63491821 C50.87019043 392.63491821 95.42019043 392.63491821 141.32019043 392.63491821 C141.32019043 308.48491821 141.32019043 224.33491821 141.32019043 137.63491821 C96.77019043 137.63491821 52.22019043 137.63491821 6.32019043 137.63491821 Z M-334.67980957 223.63491821 C-334.67980957 234.52491821 -334.67980957 245.41491821 -334.67980957 256.63491821 C-284.51980957 256.63491821 -234.35980957 256.63491821 -182.67980957 256.63491821 C-182.67980957 245.74491821 -182.67980957 234.85491821 -182.67980957 223.63491821 C-232.83980957 223.63491821 -282.99980957 223.63491821 -334.67980957 223.63491821 Z M-164.67980957 223.63491821 C-164.67980957 234.52491821 -164.67980957 245.41491821 -164.67980957 256.63491821 C-114.18980957 256.63491821 -63.69980957 256.63491821 -11.67980957 256.63491821 C-11.67980957 245.74491821 -11.67980957 234.85491821 -11.67980957 223.63491821 C-62.16980957 223.63491821 -112.65980957 223.63491821 -164.67980957 223.63491821 Z M-334.67980957 274.63491821 C-334.67980957 313.57491821 -334.67980957 352.51491821 -334.67980957 392.63491821 C-284.51980957 392.63491821 -234.35980957 392.63491821 -182.67980957 392.63491821 C-182.67980957 353.69491821 -182.67980957 314.75491821 -182.67980957 274.63491821 C-232.83980957 274.63491821 -282.99980957 274.63491821 -334.67980957 274.63491821 Z M-164.67980957 274.63491821 C-164.67980957 313.57491821 -164.67980957 352.51491821 -164.67980957 392.63491821 C-142.23980957 392.63491821 -119.79980957 392.63491821 -96.67980957 392.63491821 C-96.67980957 353.69491821 -96.67980957 314.75491821 -96.67980957 274.63491821 C-119.11980957 274.63491821 -141.55980957 274.63491821 -164.67980957 274.63491821 Z M-78.67980957 274.63491821 C-78.67980957 313.57491821 -78.67980957 352.51491821 -78.67980957 392.63491821 C-56.56980957 392.63491821 -34.45980957 392.63491821 -11.67980957 392.63491821 C-11.67980957 353.69491821 -11.67980957 314.75491821 -11.67980957 274.63491821 C-33.78980957 274.63491821 -55.89980957 274.63491821 -78.67980957 274.63491821 Z " fill="#000000" transform="translate(352.6798095703125,101.36508178710938)"/>
<path d="M0 0 C1.11536636 -0.0131424 1.11536636 -0.0131424 2.25326538 -0.02655029 C4.70793252 -0.04853234 7.1607935 -0.03399614 9.61547852 -0.01708984 C11.32414597 -0.02045873 13.03281108 -0.02531195 14.74147034 -0.03158569 C18.32185694 -0.03895564 21.90161957 -0.02824945 25.48193359 -0.00488281 C30.06673413 0.02358411 34.65006994 0.00721596 39.23481655 -0.02274513 C42.76340218 -0.04083362 46.29164193 -0.03505274 49.82023811 -0.02210617 C51.510297 -0.01877529 53.20038749 -0.02284809 54.89040947 -0.03450394 C57.25590725 -0.04723667 59.61905206 -0.02780514 61.984375 0 C62.68012131 -0.01012115 63.37586761 -0.02024231 64.09269714 -0.03067017 C67.69104542 0.04750381 69.5214622 0.62230333 72.49468994 2.69294739 C75.06658545 6.37710188 75.23125639 9.22308068 75.12451172 13.55834961 C75.12560692 14.72987328 75.12560692 14.72987328 75.12672424 15.92506409 C75.12325235 18.49584422 75.08441289 21.064792 75.04516602 23.63525391 C75.03583641 25.42171743 75.02872099 27.20819378 75.02372742 28.99467468 C75.00466914 33.68856344 74.95557872 38.38167422 74.90020752 43.07525635 C74.8489896 47.86793494 74.82620796 52.66073968 74.80102539 57.45361328 C74.74745862 66.85174088 74.66216018 76.24929199 74.55688477 85.64697266 C75.33032227 85.56576172 76.10375977 85.48455078 76.90063477 85.40087891 C82.50501085 85.06100956 86.50181235 84.85037209 90.85009766 88.69848633 C92.10943167 89.99195348 93.34555295 91.3084456 94.55688477 92.64697266 C95.76717995 93.82453802 96.98255764 94.99690366 98.203125 96.16381836 C99.42656672 97.38079804 100.64728054 98.60052525 101.86547852 99.82275391 C102.51766861 100.47398727 103.1698587 101.12522064 103.84181213 101.79618835 C105.20338612 103.15708801 106.563723 104.51922645 107.92285156 105.88256836 C110.01000751 107.9751359 112.10252109 110.0622409 114.19555664 112.14892578 C115.52335181 113.47738085 116.85083724 114.80614559 118.17797852 116.13525391 C118.80393417 116.75918533 119.42988983 117.38311676 120.07481384 118.0259552 C124.90566086 122.88329766 125.72432567 125.21230573 125.79516602 131.88525391 C125.80323776 132.60303513 125.81130951 133.32081635 125.81962585 134.06034851 C125.83346262 135.58097928 125.84418661 137.10164106 125.85205078 138.62231445 C125.86924318 140.94038308 125.91312657 143.25701735 125.95727539 145.57470703 C125.96740454 147.05321218 125.97591995 148.53172945 125.98266602 150.01025391 C126.0001741 150.70000809 126.01768219 151.38976227 126.03572083 152.10041809 C126.0199276 155.63013509 125.61778136 157.55045807 123.71777344 160.56176758 C119.99983032 164.14949237 116.57912811 163.77584382 111.62405396 163.78741455 C110.9144804 163.79038567 110.20490684 163.7933568 109.47383106 163.79641795 C107.09020818 163.80510694 104.70663552 163.80661336 102.32299805 163.80810547 C100.61640312 163.81273346 98.90980923 163.81775809 97.20321655 163.82315063 C92.562711 163.83627745 87.92221992 163.84272001 83.2816987 163.84716129 C80.38355597 163.85009123 77.4854172 163.85419586 74.58727646 163.85866547 C65.52264554 163.8723404 56.45802367 163.88200739 47.39338315 163.88586736 C36.92379252 163.89034992 26.45433234 163.90790702 15.98478138 163.93686795 C7.895535 163.95846915 -0.19367464 163.96857078 -8.28294957 163.96990848 C-13.11604074 163.97095752 -17.9490093 163.97688647 -22.78207016 163.99472809 C-27.32764738 164.01118204 -31.87300945 164.01337734 -36.4186058 164.00458908 C-38.08712337 164.0038173 -39.75565237 164.00817996 -41.42414093 164.01804733 C-43.70179037 164.03072758 -45.97867326 164.02491197 -48.25631714 164.01446533 C-49.53094755 164.01593189 -50.80557796 164.01739845 -52.11883354 164.01890945 C-56.69122392 163.50732819 -59.23615815 161.85392974 -62.44311523 158.64697266 C-62.70418996 156.15988244 -62.84356478 153.78829304 -62.88452148 151.29541016 C-62.8982933 150.56254791 -62.91206512 149.82968567 -62.92625427 149.07461548 C-62.94955191 147.51954716 -62.96680431 145.96437842 -62.97851562 144.40917969 C-63.00529328 142.05033338 -63.08011835 139.69608264 -63.15600586 137.33837891 C-63.17267806 135.82408605 -63.18643937 134.30975782 -63.19702148 132.79541016 C-63.22687637 132.09926605 -63.25673126 131.40312195 -63.28749084 130.68588257 C-63.23054523 124.21324171 -59.887145 121.02702771 -55.44311523 116.64697266 C-54.56519569 115.73570618 -54.56519569 115.73570618 -53.66954041 114.80603027 C-51.88907786 112.96221744 -50.0827226 111.14778071 -48.26733398 109.33837891 C-47.61610062 108.68618881 -46.96486725 108.03399872 -46.29389954 107.36204529 C-44.93299988 106.0004713 -43.57086144 104.64013442 -42.20751953 103.28100586 C-40.11495199 101.19384992 -38.02784699 99.10133634 -35.94116211 97.00830078 C-34.61270704 95.68050561 -33.2839423 94.35302018 -31.95483398 93.02587891 C-31.01893684 92.08694542 -31.01893684 92.08694542 -30.06413269 91.12904358 C-24.5919939 85.68675377 -24.5919939 85.68675377 -20.62280273 85.54931641 C-19.53225586 85.56091797 -18.44170898 85.57251953 -17.31811523 85.58447266 C-16.22241211 85.59349609 -15.12670898 85.60251953 -13.99780273 85.61181641 C-13.15475586 85.62341797 -12.31170898 85.63501953 -11.44311523 85.64697266 C-11.45199768 84.65582962 -11.46088013 83.66468658 -11.47003174 82.64350891 C-11.55113812 73.30037928 -11.61109047 63.95732113 -11.65036392 54.61391926 C-11.6712337 49.81041599 -11.69954022 45.00719705 -11.74487305 40.20385742 C-11.78835254 35.56784968 -11.81225693 30.93211533 -11.82262421 26.29591942 C-11.83001181 24.52766809 -11.84443817 22.75943163 -11.86603546 20.99129677 C-11.89509796 18.5133195 -11.89907013 16.03647004 -11.8972168 13.55834961 C-11.91878845 12.46322556 -11.91878845 12.46322556 -11.9407959 11.34597778 C-11.91327248 7.94222362 -11.47906821 5.71491463 -9.87992859 2.69294739 C-6.65911468 -0.01128265 -4.02790343 -0.0584247 0 0 Z M6.55688477 18.64697266 C6.55688477 40.75697266 6.55688477 62.86697266 6.55688477 85.64697266 C23.05688477 85.64697266 39.55688477 85.64697266 56.55688477 85.64697266 C56.55688477 63.53697266 56.55688477 41.42697266 56.55688477 18.64697266 C40.05688477 18.64697266 23.55688477 18.64697266 6.55688477 18.64697266 Z M-33.44311523 116.99072266 C-34.03209595 117.59412979 -34.62107666 118.19753693 -35.22790527 118.81922913 C-36.89117064 120.58956802 -38.46060743 122.40383836 -40.00561523 124.27783203 C-40.46546814 124.80707779 -40.92532104 125.33632355 -41.39910889 125.88160706 C-46.25473519 132.41089034 -44.44311523 136.4418708 -44.44311523 145.64697266 C5.71688477 145.64697266 55.87688477 145.64697266 107.55688477 145.64697266 C108.32503941 133.30997392 108.32503941 133.30997392 103.11938477 124.27783203 C102.38537445 123.38752541 102.38537445 123.38752541 101.63653564 122.47923279 C100.00262653 120.58291813 98.30521779 118.78187914 96.55688477 116.99072266 C95.95533569 116.36955063 95.35378662 115.7483786 94.73400879 115.10838318 C80.9867444 101.48002327 66.21107405 99.81582663 47.49517822 99.78456116 C44.31720775 99.81907493 41.14371277 99.90062608 37.96704102 99.99658203 C32.6158546 100.15648942 27.30352408 100.06173115 21.95367432 99.90013123 C-0.08047847 99.33657166 -17.50771762 100.53550112 -33.44311523 116.99072266 Z " fill="#000000" transform="translate(62.443115234375,-0.64697265625)"/>
<path d="M0 0 C0.90562683 -0.0071553 1.81125366 -0.01431061 2.74432373 -0.02168274 C3.73556244 -0.02437164 4.72680115 -0.02706055 5.74807739 -0.02983093 C6.79386963 -0.03640213 7.83966187 -0.04297333 8.91714478 -0.04974365 C12.38308786 -0.06947924 15.84898765 -0.08113851 19.31497192 -0.09111023 C20.49749668 -0.09518576 21.68002144 -0.09926128 22.89838028 -0.10346031 C29.15459265 -0.12431994 35.41078308 -0.13862341 41.66702271 -0.147995 C48.13590642 -0.15907255 54.6044474 -0.19348864 61.07320976 -0.23316669 C66.04199881 -0.25927759 71.01070541 -0.26768182 75.97955704 -0.27127647 C78.36461838 -0.27615498 80.74967575 -0.28780465 83.13467026 -0.30631447 C86.46962653 -0.33059259 89.8036853 -0.32976151 93.13870239 -0.32279968 C94.12589264 -0.33560974 95.11308289 -0.3484198 96.13018799 -0.36161804 C100.4748495 -0.32851188 102.8971743 -0.26925869 106.66241455 2.05154419 C110.01602308 5.73036687 109.71749085 8.26279144 109.76565552 13.17964172 C109.77792175 14.2653093 109.77792175 14.2653093 109.79043579 15.37290955 C109.81528856 17.77291535 109.83180548 20.17286201 109.84622192 22.57295227 C109.8515456 23.39231955 109.85686928 24.21168682 109.86235428 25.05588341 C109.88908549 29.39286234 109.90846036 33.7298125 109.92288208 38.06684875 C109.93952928 42.5461643 109.98430699 47.02474399 110.03525352 51.50378132 C110.06891242 54.9481999 110.08045795 58.39244353 110.08610916 61.83701134 C110.09282556 63.48805044 110.10805789 65.13907788 110.13199997 66.78995705 C110.16362746 69.10275319 110.16369312 71.41356104 110.15628052 73.72651672 C110.16436737 75.0417482 110.17245422 76.35697968 110.18078613 77.71206665 C109.57278442 81.14717102 109.57278442 81.14717102 107.69793701 84.07052612 C103.16191628 87.08468432 99.32556091 86.84802946 93.98684692 86.79414368 C92.92125549 86.80290527 91.85566406 86.81166687 90.75778198 86.82069397 C87.23736793 86.84269062 83.71821113 86.82813302 80.19778442 86.81123352 C77.75067911 86.81460154 75.30357542 86.81945404 72.85647583 86.82572937 C67.72854684 86.83310112 62.6010534 86.82238468 57.47317505 86.79902649 C50.89877657 86.77053946 44.32539863 86.78694169 37.7510376 86.81688881 C32.69811305 86.83495306 27.64543061 86.82920755 22.59249878 86.81624985 C20.1683846 86.81291347 17.74424846 86.81701099 15.32015991 86.82864761 C11.93242129 86.84134104 8.54633724 86.82199762 5.15872192 86.79414368 C3.65459747 86.80932541 3.65459747 86.80932541 2.12008667 86.82481384 C-2.35654431 86.7565948 -4.75316853 86.59454554 -8.55038452 84.07427979 C-10.83122637 80.51707512 -11.12165453 77.76543015 -11.04244995 73.66645813 C-11.04799896 72.93088181 -11.05354797 72.19530548 -11.05926514 71.43743896 C-11.07103755 69.01579311 -11.04681584 66.59602855 -11.02096558 64.17451477 C-11.01925391 62.48730556 -11.01932073 60.80009368 -11.02108765 59.11288452 C-11.01943585 55.58132903 -11.00076259 52.05040945 -10.96920776 48.51899719 C-10.9294998 43.99381616 -10.92516681 39.46946648 -10.93267059 34.94414425 C-10.93574068 31.46195874 -10.92361895 27.97995993 -10.90653992 24.4978199 C-10.89951279 22.82927687 -10.89638504 21.16071269 -10.89723206 19.49215508 C-10.89543318 17.16054433 -10.87404611 14.82992802 -10.84713745 12.49848938 C-10.85006805 11.81006958 -10.85299866 11.12164978 -10.85601807 10.41236877 C-10.80274126 7.41872749 -10.55981854 5.38459011 -9.08847046 2.75021362 C-6.33394564 0.09221052 -3.64337683 0.0197796 0 0 Z M7.57278442 18.14717102 C7.57278442 34.64717102 7.57278442 51.14717102 7.57278442 68.14717102 C35.29278442 68.14717102 63.01278442 68.14717102 91.57278442 68.14717102 C91.57278442 51.64717102 91.57278442 35.14717102 91.57278442 18.14717102 C63.85278442 18.14717102 36.13278442 18.14717102 7.57278442 18.14717102 Z " fill="#000000" transform="translate(44.427215576171875,391.8528289794922)"/>
<path d="M0 0 C5.94 0 11.88 0 18 0 C18 53.79 18 107.58 18 163 C20.97 163.99 23.94 164.98 27 166 C35.16926162 170.5626839 40.07793013 177.51780759 43.13671875 186.2421875 C44.1420166 190.61818991 44.36758293 194.6525038 44.375 199.125 C44.39949219 199.91003906 44.42398438 200.69507813 44.44921875 201.50390625 C44.46957235 205.52713515 44.309168 207.51271053 42.1015625 210.9921875 C38.87033759 214.07926855 37.00844219 214.13607181 32.63574219 214.19287109 C31.51407654 214.20893402 30.39241089 214.22499695 29.23675537 214.24154663 C24.0997498 214.2859447 18.96283349 214.32750913 13.82568359 214.35009766 C11.11537804 214.3634205 8.40582838 214.39124011 5.69580078 214.43212891 C1.79201344 214.49102565 -2.11140859 214.50877086 -6.015625 214.5234375 C-7.2251886 214.54610687 -8.4347522 214.56877625 -9.68096924 214.59213257 C-19.0650047 214.56855375 -19.0650047 214.56855375 -22.76611328 211.74926758 C-25.01500753 208.98153007 -25.75433007 207.97236076 -25.7265625 204.48828125 C-25.72833496 203.65264648 -25.73010742 202.81701172 -25.73193359 201.95605469 C-25.69664551 201.08368164 -25.66135742 200.21130859 -25.625 199.3125 C-25.6038916 198.41563477 -25.5827832 197.51876953 -25.56103516 196.59472656 C-25.29984888 190.09697932 -24.46511525 184.61327082 -21 179 C-20.57589844 178.2884375 -20.15179688 177.576875 -19.71484375 176.84375 C-14.77119443 169.46270255 -8.30393503 165.76797834 0 163 C0 109.21 0 55.42 0 0 Z M-3.8125 185.75 C-6.56571394 189.33130611 -6.56571394 189.33130611 -7 196 C3.89 196 14.78 196 26 196 C24.83629704 189.01778224 23.47916664 185.8472222 17.8125 181.625 C9.92310046 177.57871998 2.30757421 179.76592744 -3.8125 185.75 Z " fill="#000000" transform="translate(221,0)"/>
<path d="M0 0 C5.94 0 11.88 0 18 0 C18 31.35 18 62.7 18 95 C20.97 95.495 20.97 95.495 24 96 C33.36756791 101.15742503 39.59141962 107.95795066 42.875 118.125 C44.59623263 125.37876607 45.78890826 134.83357496 42.7890625 141.8203125 C40.192136 144.98425352 37.45719363 145.85654231 33.42028809 146.25396729 C32.04725525 146.25635406 32.04725525 146.25635406 30.64648438 146.25878906 C29.60190063 146.26509338 28.55731689 146.27139771 27.4810791 146.27789307 C26.3632605 146.2738446 25.24544189 146.26979614 24.09375 146.265625 C22.35756409 146.26849518 22.35756409 146.26849518 20.58630371 146.27142334 C18.14200625 146.27278279 15.69770151 146.26910311 13.25341797 146.26074219 C9.51383229 146.25003959 5.77472701 146.26064591 2.03515625 146.2734375 C-0.34114689 146.27211586 -2.71744974 146.26955338 -5.09375 146.265625 C-6.77047791 146.27169769 -6.77047791 146.27169769 -8.4810791 146.27789307 C-9.52566284 146.27158875 -10.57024658 146.26528442 -11.64648438 146.25878906 C-12.5618396 146.25719788 -13.47719482 146.25560669 -14.42028809 146.25396729 C-18.02918783 145.89867859 -20.88667882 144.83655133 -23.78540039 142.65844727 C-25.36999403 140.49480012 -25.40109545 139.13319565 -25.43359375 136.46484375 C-25.44511475 135.57756592 -25.45663574 134.69028809 -25.46850586 133.77612305 C-25.45827393 132.83937744 -25.44804199 131.90263184 -25.4375 130.9375 C-25.42920166 129.98464111 -25.42090332 129.03178223 -25.41235352 128.05004883 C-25.14215257 116.83719033 -22.04504593 109.84482986 -14 102 C-9.94698961 98.34240526 -5.62297996 95 0 95 C0 63.65 0 32.3 0 0 Z M-2.875 116.4375 C-6.4524253 120.75145404 -7 122.20313724 -7 128 C3.89 128 14.78 128 26 128 C23.81798987 119.11145089 23.81798987 119.11145089 17.6875 113.25 C9.87084446 109.61434626 3.4964908 111.03558389 -2.875 116.4375 Z " fill="#000000" transform="translate(281,0)"/>
<path d="M0 0 C5.94 0 11.88 0 18 0 C18 11.55 18 23.1 18 35 C12.06 35 6.12 35 0 35 C0 23.45 0 11.9 0 0 Z " fill="#000000" transform="translate(290,418)"/>
<path d="M0 0 C5.94 0 11.88 0 18 0 C18 11.55 18 23.1 18 35 C12.06 35 6.12 35 0 35 C0 23.45 0 11.9 0 0 Z " fill="#000000" transform="translate(221,418)"/>
<path d="M0 0 C11.55 0 23.1 0 35 0 C35 5.94 35 11.88 35 18 C23.45 18 11.9 18 0 18 C0 12.06 0 6.12 0 0 Z " fill="#000000" transform="translate(247,332)"/>
<path d="M0 0 C5.94 0 11.88 0 18 0 C18 11.55 18 23.1 18 35 C12.06 35 6.12 35 0 35 C0 23.45 0 11.9 0 0 Z " fill="#000000" transform="translate(375,273)"/>
<path d="M0 0 C5.94 0 11.88 0 18 0 C18 11.55 18 23.1 18 35 C12.06 35 6.12 35 0 35 C0 23.45 0 11.9 0 0 Z " fill="#000000" transform="translate(375,153)"/>
<path d="M0 0 C3.14674823 2.74331897 3.89954133 4.37492386 4.5625 8.5 C4 12 4 12 2 14.9375 C-2.13313471 17.77903011 -4.04904141 17.62869315 -9 17 C-11.4375 16.0625 -11.4375 16.0625 -13 14 C-13.89815671 10.95331154 -14.24470771 8.17007713 -14 5 C-10.42644123 -1.12610075 -6.66281843 -1.63648172 0 0 Z " fill="#000000" transform="translate(150,333)"/>
<path d="M0 0 C2.5 2 2.5 2 4 5 C4.29120856 9.14972196 3.98503421 12.69975484 1.4375 16.0625 C-2.10021315 17.4231589 -5.31365508 17.76646776 -9 17 C-12 14.9375 -12 14.9375 -14 12 C-14.68577608 7.73294881 -14.50023114 5.79347009 -12.1875 2.125 C-8.28149586 -1.66940403 -5.0774203 -1.24708569 0 0 Z " fill="#000000" transform="translate(116,333)"/>
<path d="M0 0 C1.875 1.0625 1.875 1.0625 3 3 C3.91565304 6.61644479 4.38395715 9.78413569 3.25 13.375 C2 15 2 15 -1 17 C-5.86581934 17.5493667 -7.8976444 17.73490373 -12 15 C-14.77041398 10.84437903 -14.70476018 8.93332128 -14 4 C-10.05000255 -1.31206554 -6.19282541 -1.32703402 0 0 Z " fill="#000000" transform="translate(82,333)"/>
<path d="M0 0 C2.90398503 2.11912421 3.84245093 3.50634623 4.9375 6.9375 C5.01245915 10.61049821 4.178742 12.09501066 2 15 C0 17 0 17 -3.8125 17.4375 C-7.17733329 17.33330662 -8.04370031 16.97086646 -11 15 C-13.77041398 10.84437903 -13.70476018 8.93332128 -13 4 C-9.343307 -0.91762162 -5.77832349 -1.5330246 0 0 Z " fill="#000000" transform="translate(47,333)"/>
</svg>
