<?xml version="1.0" standalone="no"?>
<!DOCTYPE svg PUBLIC "-//W3C//DTD SVG 20010904//EN"
 "http://www.w3.org/TR/2001/REC-SVG-20010904/DTD/svg10.dtd">
<svg version="1.0" xmlns="http://www.w3.org/2000/svg"
 width="512.000000pt" height="512.000000pt" viewBox="0 0 512.000000 512.000000"
 preserveAspectRatio="xMidYMid meet">

<g transform="translate(0.000000,512.000000) scale(0.100000,-0.100000)"
fill="#000000" stroke="none">
<path d="M915 5005 c-14 -13 -25 -31 -25 -40 0 -9 18 -48 39 -88 70 -129 86
-223 55 -328 -9 -30 -51 -122 -94 -205 -134 -261 -142 -382 -39 -592 59 -118
109 -150 157 -99 30 32 28 61 -9 119 -67 110 -91 216 -69 309 7 30 50 131 96
224 46 94 91 197 99 230 29 117 13 241 -49 363 -65 130 -110 159 -161 107z"/>
<path d="M4112 5007 c-30 -32 -28 -61 9 -119 67 -110 91 -216 69 -309 -7 -30
-50 -130 -96 -224 -46 -93 -91 -197 -99 -230 -29 -117 -13 -241 49 -363 45
-90 81 -132 112 -132 28 0 74 41 74 65 0 9 -18 48 -39 88 -70 129 -86 223 -55
328 9 30 51 122 94 205 78 152 110 249 110 331 0 70 -29 176 -71 260 -59 119
-109 151 -157 100z"/>
<path d="M4800 5010 c-29 -29 -25 -55 25 -155 86 -172 81 -250 -34 -476 -97
-190 -121 -265 -121 -368 0 -92 18 -163 64 -257 59 -119 103 -149 157 -106 31
26 28 67 -10 128 -73 119 -91 250 -49 361 11 32 52 117 89 188 37 72 75 156
84 189 21 74 21 199 0 274 -20 69 -88 200 -117 225 -27 23 -63 22 -88 -3z"/>
<path d="M229 5002 c-31 -26 -28 -66 8 -127 50 -84 73 -158 73 -234 0 -85 -19
-141 -103 -301 -87 -166 -109 -234 -109 -337 0 -94 19 -167 69 -266 55 -111
97 -139 151 -101 33 23 28 58 -23 159 -87 169 -81 249 34 475 43 86 88 186
100 224 28 90 28 201 0 292 -22 73 -79 184 -110 215 -24 24 -60 24 -90 1z"/>
<path d="M1606 4999 c-14 -11 -26 -30 -26 -42 0 -12 20 -62 45 -112 91 -180
85 -243 -47 -512 -110 -221 -129 -317 -93 -458 19 -70 80 -196 112 -231 30
-33 75 -32 102 2 12 15 21 32 21 38 0 6 -23 56 -51 112 -88 173 -82 256 41
489 111 212 136 315 107 451 -17 81 -78 212 -119 256 -31 33 -56 35 -92 7z"/>
<path d="M2569 4122 c-174 -47 -299 -184 -329 -362 -37 -216 110 -439 325
-494 326 -85 624 213 539 539 -60 233 -307 379 -535 317z m232 -154 c67 -28
144 -113 164 -180 44 -150 -25 -308 -163 -371 -71 -33 -190 -31 -257 5 -109
58 -169 154 -169 273 2 222 219 362 425 273z"/>
<path d="M1915 3174 c-110 -30 -256 -72 -325 -94 l-125 -40 -224 -166 -224
-166 -146 -50 c-311 -106 -502 -232 -569 -375 l-27 -58 0 -735 0 -735 27 -58
c136 -289 785 -512 1708 -587 69 -6 251 -13 405 -17 940 -20 1814 138 2211
402 96 65 156 128 193 205 l26 55 3 705 c2 499 0 720 -8 757 -46 211 -339 388
-865 522 -38 10 -42 14 -68 83 -36 97 -59 132 -104 162 -42 27 -565 167 -693
185 -218 31 -643 61 -840 60 l-155 -1 -200 -54z m835 -109 c328 -28 369 -35
664 -111 159 -41 297 -79 307 -85 10 -5 23 -17 28 -27 29 -54 211 -559 211
-585 0 -68 -91 -105 -136 -56 -10 11 -60 130 -111 262 -66 176 -98 247 -115
259 -12 10 -124 43 -248 75 -238 60 -272 63 -290 20 -5 -12 -23 -182 -40 -377
-17 -195 -33 -357 -36 -360 -9 -9 -746 -3 -789 6 l-41 9 33 380 c33 373 33
380 15 405 -11 14 -30 26 -44 28 -30 4 -523 -134 -558 -156 -14 -8 -152 -109
-306 -224 -244 -180 -287 -208 -318 -208 -61 0 -102 62 -74 113 12 24 576 450
636 481 35 18 160 56 402 122 l195 54 220 -5 c121 -2 299 -11 395 -20z m-685
-392 c-3 -43 -8 -88 -11 -100 -5 -24 7 -22 -243 -48 -85 -9 -195 -23 -244 -31
-48 -9 -90 -14 -93 -12 -2 2 42 38 98 79 l101 74 196 56 c108 31 197 57 199
58 2 1 0 -34 -3 -76z m1288 -22 c82 -22 151 -41 153 -44 3 -3 14 -28 25 -57
l20 -53 -53 7 c-29 3 -114 13 -188 22 -74 9 -136 17 -138 18 -8 9 13 146 22
146 6 0 78 -18 159 -39z m877 -133 c262 -91 456 -226 476 -334 20 -106 -110
-232 -343 -333 -568 -247 -1630 -346 -2576 -240 -637 71 -1133 229 -1310 417
-56 61 -75 116 -59 170 23 77 117 159 270 236 l74 37 -7 -40 c-4 -26 -1 -60
10 -96 l16 -56 -31 -35 c-24 -28 -30 -44 -30 -82 0 -100 35 -125 300 -212 710
-235 1952 -267 2817 -75 127 29 372 107 465 148 70 31 98 71 98 139 0 36 -6
54 -26 78 -33 38 -61 53 -193 100 l-105 37 -31 84 c-18 46 -35 94 -39 106 l-7
22 73 -21 c40 -11 111 -34 158 -50z m-2193 -160 c-3 -29 -11 -122 -18 -206
-16 -192 -16 -191 118 -203 156 -14 644 -21 796 -12 127 8 150 12 168 29 17
18 22 48 38 222 10 111 20 205 24 208 6 6 227 -18 361 -39 48 -8 82 -18 88
-27 4 -8 22 -53 39 -99 47 -125 99 -175 198 -190 l46 -7 -93 -22 c-622 -150
-1668 -161 -2363 -26 -242 47 -591 156 -569 178 5 5 50 12 100 16 85 6 94 9
151 48 66 46 124 63 344 106 156 29 324 52 564 75 11 1 13 -10 8 -51z m2118
-157 c28 -11 64 -25 80 -31 l30 -12 -35 -14 c-36 -16 -229 -84 -236 -84 -2 0
14 16 35 36 22 19 47 55 57 80 9 24 17 44 18 44 0 0 24 -9 51 -19z m-3500
-457 c302 -144 768 -247 1345 -296 207 -17 913 -17 1120 0 705 60 1233 197
1523 396 l67 46 0 -547 c0 -534 0 -548 -21 -590 -64 -133 -350 -278 -729 -372
-416 -102 -830 -146 -1400 -146 -669 0 -1186 67 -1627 211 -152 49 -355 151
-425 213 -104 93 -98 55 -98 684 l0 547 68 -47 c37 -25 117 -70 177 -99z"/>
</g>
</svg>
