<?xml version="1.0" standalone="no"?>
<!DOCTYPE svg PUBLIC "-//W3C//DTD SVG 20010904//EN"
 "http://www.w3.org/TR/2001/REC-SVG-20010904/DTD/svg10.dtd">
<svg version="1.0" xmlns="http://www.w3.org/2000/svg"
 width="512.000000pt" height="512.000000pt" viewBox="0 0 512.000000 512.000000"
 preserveAspectRatio="xMidYMid meet">

<g transform="translate(0.000000,512.000000) scale(0.100000,-0.100000)"
fill="#000000" stroke="none">
<path d="M2705 5105 c-469 -87 -819 -474 -853 -943 l-7 -94 -91 -23 c-180 -45
-323 -122 -456 -245 -235 -215 -360 -542 -328 -855 45 -439 349 -793 778 -907
98 -26 295 -35 396 -19 l75 12 55 -45 c112 -91 246 -158 387 -192 l69 -17 0
-825 c0 -805 0 -827 20 -867 53 -110 212 -111 264 -1 14 30 16 102 16 645 l0
611 68 -34 c108 -54 173 -69 307 -72 l120 -2 67 -44 c36 -24 91 -53 122 -63
l55 -19 3 -495 c3 -475 4 -497 23 -530 59 -99 181 -107 251 -15 l29 37 3 501
3 501 63 23 c35 13 93 42 128 66 l63 43 85 -5 c114 -5 213 17 325 72 442 218
504 815 117 1125 -34 27 -91 64 -126 80 l-64 31 40 91 c65 151 82 240 81 414
0 128 -4 164 -26 247 -51 193 -149 360 -290 495 -95 91 -166 140 -280 193 -77
36 -219 80 -259 80 -21 0 -25 16 -32 130 -9 156 -76 340 -177 485 -55 80 -185
211 -262 264 -76 52 -244 127 -337 151 -113 28 -314 35 -425 15z m360 -310
c33 -8 96 -33 140 -55 197 -96 332 -265 387 -482 18 -72 20 -101 15 -227 -4
-111 -3 -150 8 -170 33 -63 93 -91 200 -91 178 -1 384 -105 511 -258 248 -301
222 -734 -59 -998 -90 -84 -160 -127 -274 -166 -114 -40 -260 -49 -373 -23
-161 37 -169 36 -258 -48 -106 -99 -209 -162 -299 -182 l-33 -7 0 169 0 168
386 385 c212 212 392 397 400 412 8 15 14 45 14 68 0 98 -80 163 -178 145 -32
-6 -79 -49 -329 -298 l-293 -292 0 681 0 681 -22 33 c-37 54 -72 74 -128 74
-54 0 -87 -18 -124 -68 -21 -27 -21 -41 -26 -672 l-5 -645 -234 161 c-128 89
-244 165 -258 171 -128 48 -249 -90 -185 -210 14 -26 98 -89 348 -261 l329
-226 3 -237 c1 -152 -1 -237 -8 -237 -24 0 -144 52 -192 83 -29 19 -83 64
-120 100 -82 80 -110 88 -212 62 -354 -88 -696 69 -860 393 -67 132 -86 340
-46 496 29 113 92 228 175 315 138 146 286 217 485 231 119 9 131 13 175 60
l30 32 -3 146 c-4 184 12 272 73 397 107 220 310 368 560 409 53 8 218 -3 280
-19z m1543 -2559 c186 -94 261 -310 172 -492 -78 -160 -250 -241 -424 -200
-90 21 -126 11 -204 -58 -75 -67 -135 -91 -227 -91 -93 0 -154 25 -226 91 -76
69 -110 79 -212 57 -66 -14 -87 -15 -143 -4 -111 20 -196 77 -256 170 -41 65
-38 75 30 89 113 24 279 109 372 190 l50 44 69 -11 c269 -42 557 31 772 194
72 55 76 56 125 52 28 -3 74 -17 102 -31z"/>
<path d="M106 1820 c-56 -18 -106 -85 -106 -145 0 -42 337 -955 362 -982 39
-42 59 -47 199 -53 l137 -5 -127 -219 c-113 -197 -126 -225 -126 -267 0 -54
22 -90 76 -127 44 -31 114 -26 159 9 20 15 92 129 199 314 l167 290 314 0 314
0 168 -290 c111 -193 178 -298 199 -315 42 -33 124 -35 165 -4 49 36 69 72 69
123 0 42 -13 70 -126 267 l-127 219 133 5 c114 4 137 8 161 26 94 70 96 189 4
252 l-33 22 -528 0 c-291 0 -529 3 -529 7 0 3 44 82 97 175 l96 168 152 0
c142 0 154 2 186 23 21 14 41 41 53 69 17 42 18 52 7 89 -17 55 -57 94 -111
109 -27 7 -109 10 -229 8 -165 -3 -190 -5 -221 -23 -28 -17 -59 -62 -157 -230
-67 -116 -146 -250 -175 -300 l-53 -90 -149 0 -149 0 -143 395 c-79 217 -152
406 -162 419 -41 55 -107 79 -166 61z"/>
</g>
</svg>
