<?xml version="1.0" encoding="UTF-8"?>
<svg version="1.1" xmlns="http://www.w3.org/2000/svg" width="512" height="512">
<path d="M0 0 C1.18292726 -0.00507454 2.36585451 -0.01014909 3.58462805 -0.0153774 C4.89062651 -0.01587516 6.19662496 -0.01637292 7.54219913 -0.01688576 C8.93866936 -0.02090027 10.33513842 -0.02533848 11.73160607 -0.03016531 C15.57819492 -0.04213843 19.42477122 -0.047781 23.27137506 -0.05234647 C27.41679322 -0.05829996 31.56219637 -0.06991063 35.70760441 -0.08063698 C45.72503354 -0.10516972 55.74246765 -0.11979093 65.75991759 -0.13269705 C68.58967399 -0.13640883 71.41942989 -0.14038209 74.2491858 -0.14444971 C91.82298688 -0.16968987 109.39678873 -0.19174227 126.97060394 -0.20417786 C131.04216292 -0.20710755 135.11372188 -0.21006921 139.1852808 -0.21308327 C140.19724559 -0.21382932 141.20921039 -0.21457537 142.25184078 -0.21534403 C158.63624099 -0.22799107 175.02053252 -0.26120451 191.40488195 -0.3028851 C208.22866021 -0.34533236 225.0523829 -0.36887626 241.87621456 -0.37409842 C251.32114773 -0.37750974 260.76591117 -0.38923176 270.21079159 -0.42220116 C278.25682165 -0.45024142 286.30264721 -0.46118366 294.34872233 -0.4500057 C298.45155814 -0.44482886 302.55396596 -0.44764173 306.65673923 -0.47247124 C310.41939715 -0.49505143 314.18132182 -0.49415692 317.94399334 -0.47526737 C319.93623843 -0.47116769 321.92848858 -0.49154831 323.92062181 -0.51305425 C336.09419304 -0.40637438 346.61013688 3.49338351 355.35447025 12.13701439 C363.77638028 22.03645249 365.7516327 32.0371615 367.24411869 44.69219017 C367.41111309 46.05182213 367.57884865 47.41136322 367.74725819 48.77082062 C368.20103575 52.45691129 368.64232442 56.14439221 369.0802145 59.83240032 C369.35463507 62.13839938 369.63188301 64.44404082 369.91008854 66.74958611 C371.22721407 77.6685141 372.51755518 88.59050634 373.79862785 99.51371717 C374.12462441 102.29281257 374.45106013 105.07185606 374.77761936 107.85088539 C375.80438252 116.58953857 376.82979042 125.32834901 377.85304952 134.06741321 C379.02586978 144.083783 380.2033331 154.09959302 381.38468099 164.11496055 C382.30562851 171.92499837 383.22257933 179.73549894 384.13649249 187.546363 C384.67944285 192.18602766 385.22403429 196.82548495 385.77281284 201.46446419 C386.28632497 205.80628016 386.79485597 210.14865123 387.29961491 214.49149323 C387.48485679 216.077934 387.6718568 217.66417068 387.86079502 219.25017548 C390.37653407 240.3909887 390.37653407 240.3909887 387.85447025 244.69951439 C384.8682038 246.4166176 382.74509075 246.65334144 379.35447025 246.76592064 C376.19957346 245.77385348 375.17049055 243.84571878 373.35447025 241.13701439 C372.54332829 237.78999901 372.54332829 237.78999901 372.09690189 233.88554955 C372.0096384 233.16350932 371.92237492 232.4414691 371.83246708 231.69754887 C371.54384416 229.2753064 371.2793713 226.85103655 371.0146265 224.42607689 C370.81072759 222.67315371 370.60531751 220.92040575 370.39852238 219.16782188 C369.9536897 215.37016793 369.51955173 211.57149302 369.09348392 207.77168846 C368.41322682 201.70677122 367.70866724 195.64482507 367.00095463 189.58305931 C365.84638688 179.66835897 364.70817427 169.75185349 363.57618999 159.83455181 C361.28599956 139.77117868 358.97725109 119.70995668 356.6495266 99.6509037 C355.78778254 92.21796826 354.93654389 84.78392489 354.09352303 77.34884357 C353.56298448 72.68557861 353.02454738 68.02324877 352.48417187 63.3611145 C352.23413956 61.18918203 351.98744418 59.01686239 351.74434566 56.84414291 C351.40975938 53.85773658 351.06320578 50.87294395 350.71384525 47.88823509 C350.62032811 47.02699846 350.52681097 46.16576183 350.43045998 45.27842712 C349.44311493 37.05085212 347.57713736 28.06476836 341.35447025 22.13701439 C334.39242294 17.64311763 327.86697618 16.01436822 319.61252975 16.00837994 C318.48448038 16.00515549 317.356431 16.00193104 316.19419831 15.99860889 C314.35029447 16.00093179 314.35029447 16.00093179 312.46914005 16.00330162 C311.15545974 16.00103606 309.84177942 15.99877051 308.48829061 15.9964363 C304.84790915 15.99032549 301.20755067 15.99045105 297.56716526 15.99163067 C293.63863292 15.99183486 289.71010793 15.98631419 285.78157902 15.9815731 C278.08709152 15.97326995 270.39261168 15.97051842 262.69812008 15.96996073 C256.44309471 15.96948541 250.18807187 15.96742988 243.93304729 15.9642601 C226.19540172 15.95545447 208.4577622 15.95084059 190.72011443 15.95159058 C189.76405879 15.95163053 188.80800314 15.95167049 187.82297611 15.95171165 C186.86575196 15.95175254 185.90852781 15.95179342 184.92229686 15.95183554 C169.40908447 15.95224199 153.89589636 15.94267242 138.38269099 15.92857329 C122.45041101 15.91420764 106.51814288 15.90730321 90.58585626 15.90816706 C81.64247253 15.90849897 72.69911425 15.90575481 63.75573635 15.89498901 C56.14122317 15.88588155 48.52674697 15.8837108 40.91223069 15.89049844 C37.02861212 15.89376238 33.14506449 15.89382486 29.26145267 15.88514519 C25.04783194 15.87582496 20.83437533 15.88205949 16.62075138 15.88977623 C15.39817432 15.88463267 14.17559726 15.8794891 12.91597241 15.87418967 C4.80845255 15.90701451 -3.39980922 16.08391682 -10.39552975 20.69951439 C-11.43967037 21.35113548 -11.43967037 21.35113548 -12.50490475 22.01592064 C-19.49152111 28.9387905 -20.69144158 37.25807258 -21.71736813 46.68280602 C-21.87600426 48.0102228 -22.03640513 49.3374297 -22.19844365 50.66443545 C-22.53356527 53.43611572 -22.85734637 56.2087681 -23.17150497 58.98290181 C-23.62178724 62.9548057 -24.10081908 66.92284713 -24.58607388 70.89064407 C-25.49157713 78.32437786 -26.36788063 85.76127636 -27.23788285 93.19922507 C-27.68738665 97.03766532 -28.13965093 100.87578067 -28.59146786 104.7139492 C-29.67268464 113.90402755 -30.74942898 123.0946276 -31.82563865 132.28529343 C-32.33535284 136.63721771 -32.84558728 140.98908099 -33.35577297 145.34095001 C-35.05459771 159.83334081 -36.75236409 174.32585489 -38.44665813 188.81877613 C-38.60814983 190.2001347 -38.60814983 190.2001347 -38.77290399 191.6093995 C-38.88078467 192.53218312 -38.98866534 193.45496674 -39.09981513 194.4057135 C-39.31833889 196.27488762 -39.53686486 198.14406149 -39.75539303 200.01323509 C-39.86378377 200.94036027 -39.97217451 201.86748545 -40.08384982 202.82270534 C-41.84611496 217.89455396 -43.61593169 232.96550581 -45.38887188 248.03610205 C-47.21707174 263.57742733 -49.03874384 279.11950673 -50.85399175 294.66235024 C-51.87022588 303.36238058 -52.88923223 312.06206575 -53.91554165 320.76091385 C-54.78750621 328.15175981 -55.65350298 335.54327484 -56.51186481 342.93571346 C-56.94903909 346.69923067 -57.38892032 350.4623758 -57.83647251 354.22467422 C-58.32303152 358.31556 -58.79597565 362.4079112 -59.26778316 366.50052452 C-59.40901977 367.66979892 -59.55025638 368.83907331 -59.69577289 370.04378027 C-61.9508733 387.25016696 -61.9508733 387.25016696 -56.64552975 403.13701439 C-56.31552975 404.12701439 -55.98552975 405.11701439 -55.64552975 406.13701439 C-53.93033228 407.16352812 -53.93033228 407.16352812 -51.64552975 408.13701439 C-49.92977998 409.15586817 -48.22428974 410.18951694 -46.524436 411.23467064 C-42.066087 413.37579043 -37.37642563 413.27040879 -32.51447201 413.29523277 C-31.45450731 413.30263974 -31.45450731 413.30263974 -30.37312919 413.31019634 C-28.01170185 413.32552136 -25.65030159 413.33391836 -23.28884029 413.34233665 C-21.59354064 413.35191911 -19.89824337 413.36192941 -18.20294857 413.37233543 C-13.60423295 413.39935074 -9.0055071 413.42037857 -4.40675616 413.44033742 C0.40056833 413.46221779 5.20786142 413.48959644 10.01516056 413.51639366 C19.11688045 413.56629281 28.2186178 413.61124195 37.32037181 413.65441602 C47.68306828 413.70381214 58.04573324 413.75872147 68.40839922 413.81409562 C89.72372704 413.92787302 111.03908543 414.03452575 132.35447025 414.13701439 C132.35447025 408.19701439 132.35447025 402.25701439 132.35447025 396.13701439 C130.34268681 396.14589684 128.33090336 396.15477928 126.25815678 396.16393089 C107.30628779 396.24569127 88.35444208 396.30520759 69.40243626 396.34426308 C59.65883764 396.36487654 49.91536854 396.39297391 40.17185307 396.4387722 C31.67807347 396.47867717 23.18438769 396.50445604 14.69051695 396.51336837 C10.1942432 396.51857692 5.69823783 396.53079353 1.20205021 396.55993462 C-3.0332776 396.58716161 -7.26822744 396.59544474 -11.50363445 396.58944511 C-13.05480029 396.5905421 -14.60597927 396.5984527 -16.15706921 396.61383629 C-30.80393715 396.75193066 -30.80393715 396.75193066 -37.64552975 392.13701439 C-43.76178841 385.55027429 -42.91614332 379.81159047 -42.64552975 371.13701439 C-42.30513537 366.48838502 -41.78043047 361.87209987 -41.22309017 357.24495506 C-41.06780541 355.90634207 -40.91322487 354.56764723 -40.75927716 353.22887981 C-40.33904995 349.59237339 -39.90887364 345.95710639 -39.47687328 342.32198238 C-39.01085011 338.38543271 -38.55422151 334.44779126 -38.09632015 330.51029015 C-37.19987743 322.81507503 -36.29467283 315.12091553 -35.38615986 307.42711706 C-34.64784521 301.17354869 -33.91257088 294.91962983 -33.17942905 288.66545296 C-33.0748315 287.77321792 -32.97023394 286.88098288 -32.86246676 285.96171042 C-32.64995339 284.14886728 -32.4374446 282.3360236 -32.22494034 280.5231794 C-30.23555833 263.55551407 -28.23593774 246.58906722 -26.23298392 229.62299941 C-24.40157843 214.10754644 -22.58211067 198.59072136 -20.76838263 183.07319285 C-18.90370486 167.12053863 -17.03154365 151.16877974 -15.15104753 135.21798217 C-14.93837955 133.4138832 -14.72572291 131.60978289 -14.51307774 129.80568123 C-14.40846368 128.91812914 -14.30384963 128.03057705 -14.19606545 127.11612944 C-13.4602122 120.86894583 -12.72921653 114.62120492 -12.00016499 108.37322426 C-11.1118097 100.76087897 -10.21629656 93.1494171 -9.31158181 85.53899808 C-8.85041547 81.65807479 -8.3924953 77.77684239 -7.94341183 73.89450073 C-7.531962 70.3382834 -7.11109282 66.7833104 -6.68280283 63.22908305 C-6.45755688 61.33961977 -6.24225508 59.44897916 -6.02735204 57.55831158 C-4.12105139 41.9538538 -4.12105139 41.9538538 1.41697025 37.19951439 C5.42603829 34.38463683 7.18369969 34.01025248 12.03485966 33.99657249 C13.24346653 33.99086235 14.4520734 33.98515221 15.69730473 33.97926903 C17.04380121 33.97802362 18.3902978 33.97689853 19.73679447 33.97588158 C21.1493019 33.97125427 22.56180807 33.96622973 23.97431278 33.96083641 C27.81731509 33.9477023 31.66029992 33.94126554 35.50332117 33.93682575 C37.90310973 33.93389677 40.30289349 33.92979231 42.70267963 33.92532158 C50.20768489 33.91164424 57.71267921 33.90197864 65.21769607 33.89811969 C73.88748235 33.89363761 82.55711107 33.87608386 91.22684944 33.84711909 C97.92414006 33.82551907 104.6213863 33.81541632 111.3187114 33.81407857 C115.32069171 33.81302937 119.32252396 33.80709724 123.32446766 33.78925896 C127.08866349 33.77280709 130.85259951 33.77060856 134.61681843 33.77939796 C135.9987212 33.78016989 137.38063776 33.7758052 138.76250553 33.76593971 C140.64833266 33.75326546 142.53426368 33.76087225 144.42011356 33.76952171 C145.47573427 33.76805515 146.53135498 33.76658859 147.6189642 33.76507759 C150.7369147 34.18901397 152.11325869 34.96102488 154.35447025 37.13701439 C154.850564 39.29326439 154.850564 39.29326439 154.79197025 41.63701439 C154.79003666 42.79717064 154.79003666 42.79717064 154.788064 43.98076439 C154.2505512 46.65380104 153.52827604 47.52021552 151.35447025 49.13701439 C148.11247314 50.19475842 145.10589483 50.26040131 141.71036625 50.25726891 C140.56054264 50.25864357 139.41071903 50.26001823 138.22605228 50.26143456 C136.96873295 50.25783928 135.71141361 50.254244 134.41599369 50.25053978 C133.07551927 50.25025764 131.73504469 50.25041617 130.39457035 50.25098228 C126.75854599 50.2512692 123.12255462 50.24538957 119.48653793 50.23840833 C115.68553872 50.23215717 111.88453875 50.23156959 108.08353519 50.23038292 C100.88713656 50.22727481 93.69075311 50.21906841 86.49436116 50.20903343 C78.30095602 50.19785617 70.10755014 50.19235777 61.91413927 50.18733799 C45.06090748 50.17688538 28.20769047 50.15929598 11.35447025 50.13701439 C11.3072714 51.44419882 11.3072714 51.44419882 11.25911903 52.77779102 C10.58532913 67.11681564 8.81489719 81.32665947 7.11031401 95.57208574 C6.65337032 99.40029357 6.20227978 103.2291919 5.75043583 107.05800438 C4.96904026 113.67264133 4.18403404 120.28684146 3.39649105 126.90074921 C2.25787695 136.46305191 1.1248391 146.02600901 -0.00688993 155.58912873 C-1.84371686 171.10905387 -3.68497923 186.62844939 -5.52907467 202.14751244 C-7.31918443 217.21233862 -9.10717803 232.2774135 -10.89235592 247.34282494 C-11.00261203 248.27328825 -11.11286814 249.20375157 -11.22646535 250.16241074 C-11.77963972 254.83082019 -12.3327728 259.49923453 -12.88588536 264.1676513 C-17.46603424 302.82486685 -22.05422448 341.48112197 -26.64552975 380.13701439 C-3.54552975 380.13701439 19.55447025 380.13701439 43.35447025 380.13701439 C43.35447025 369.90701439 43.35447025 359.67701439 43.35447025 349.13701439 C46.60616889 333.96242076 49.89573729 323.95585674 59.35447025 312.13701439 C60.15304447 311.07353783 60.15304447 311.07353783 60.9677515 309.98857689 C68.33354515 300.74021068 79.38235167 294.19192778 90.35447025 290.13701439 C91.18204838 289.81861595 92.0096265 289.50021751 92.86228275 289.17217064 C110.47610744 283.60045059 130.26414331 286.29212459 146.66697025 293.94951439 C159.5879485 300.80414476 169.43955023 310.94651056 177.35447025 323.13701439 C177.68318119 322.60334251 178.01189213 322.06967064 178.350564 321.51982689 C187.87127973 306.60661906 199.84422932 296.58444424 216.35447025 290.13701439 C217.22845463 289.79541283 218.102439 289.45381126 219.00290775 289.10185814 C236.51874947 283.58000188 256.28321502 286.34461614 272.60447025 293.88701439 C278.44477337 296.97436504 283.42643508 300.75844655 288.35447025 305.13701439 C288.99126713 305.69131126 289.628064 306.24560814 290.28415775 306.81670189 C301.76628355 317.48232096 309.96640499 334.59811049 310.59323978 350.29302025 C310.6815422 354.82714921 310.61631552 359.35261111 310.54197025 363.88701439 C310.48009525 369.24951439 310.41822025 374.61201439 310.35447025 380.13701439 C325.20447025 380.13701439 340.05447025 380.13701439 355.35447025 380.13701439 C354.64036991 374.11260094 354.64036991 374.11260094 353.9118433 367.96648216 C349.54697725 331.13916695 345.18673723 294.3113064 340.83154398 257.48284599 C340.26077099 252.65630158 339.68995739 247.82976197 339.11911869 243.00322533 C339.00547533 242.04234585 338.89183197 241.08146638 338.77474487 240.09146935 C336.93438286 224.53163637 335.09073143 208.97219483 333.24586475 193.41289538 C331.353034 177.44844891 329.4637372 161.48358708 327.57772255 145.51833391 C326.41377647 135.66640102 325.24707287 125.81480273 324.0768435 115.96361417 C323.27471438 109.20890212 322.4760173 102.45378979 321.68001819 95.69835263 C321.22062368 91.80046316 320.7597178 87.90276809 320.29473591 84.00554085 C319.86882541 80.43550481 319.44724044 76.86498511 319.02904665 73.29403716 C318.80549836 71.39479115 318.57736279 69.4960868 318.34904861 67.59740782 C317.66650478 61.73161422 317.18680926 56.04253167 317.35447025 50.13701439 C316.31002231 50.13977977 316.31002231 50.13977977 315.24447441 50.14260101 C298.30197053 50.18676976 281.35948489 50.21986595 264.41693687 50.24063873 C256.22364897 50.2509513 248.0303995 50.26501126 239.83713627 50.2878933 C232.69588879 50.30782777 225.55466915 50.32073097 218.41339463 50.32519138 C214.63215005 50.32779866 210.8509851 50.33392651 207.06976604 50.3484745 C203.51001605 50.36205932 199.95037842 50.36623522 196.39060497 50.36322975 C194.46282486 50.36404144 192.53505696 50.3747984 190.60730839 50.38585472 C189.45611012 50.38310539 188.30491184 50.38035606 187.11882877 50.37752342 C186.12052697 50.37936701 185.12222517 50.38121059 184.0936718 50.38311005 C180.01779981 50.01692509 177.25657395 49.03911809 174.35447025 46.13701439 C174.01853275 44.07842064 174.01853275 44.07842064 173.97947025 41.69951439 C173.95111088 40.91705345 173.9227515 40.13459251 173.89353275 39.32842064 C174.35447025 37.13701439 174.35447025 37.13701439 176.01406384 35.5242815 C178.95833488 33.7790759 180.84802761 33.7572315 184.26191044 33.74933434 C185.47037632 33.7394297 186.6788422 33.72952507 187.92392826 33.7193203 C189.25998885 33.7235583 190.59604845 33.72811615 191.93210697 33.73296165 C193.34166855 33.72725825 194.75122551 33.7202941 196.16077518 33.71216393 C199.98733196 33.69421192 203.81365967 33.69540491 207.64024591 33.70110631 C210.83603001 33.70419585 214.03176995 33.69810819 217.22754776 33.69206756 C224.76842773 33.67801666 232.30919443 33.67958772 239.85007572 33.69096947 C247.62546363 33.70244597 255.40050643 33.68838437 263.17584884 33.66157299 C269.85454895 33.63940672 276.5331408 33.63278085 283.21187508 33.6386494 C287.19938011 33.64201864 291.18666402 33.63960658 295.17413807 33.62239838 C298.92533215 33.60691683 302.67601583 33.61089766 306.42718983 33.62970352 C308.45611968 33.63513949 310.48507251 33.62088372 312.51395512 33.60600853 C323.8364146 33.69771935 323.8364146 33.69771935 328.35447025 38.13701439 C332.269807 43.06461146 333.18355002 47.06207913 333.87664127 53.12128258 C333.9933865 54.030325 334.11013173 54.93936743 334.23041469 55.87595659 C334.62155205 58.96116372 334.98840673 62.04873812 335.35447025 65.13701439 C335.63235416 67.39121952 335.91112871 69.645315 336.19070339 71.89931107 C337.06502089 79.01002526 337.90808724 86.1242777 338.74621475 93.23932064 C339.18401727 96.95112637 339.62478028 100.66258089 340.06508732 104.37409019 C341.02227822 112.44757309 341.97564659 120.52150439 342.92809939 128.59554744 C343.52408387 133.64775847 344.12081052 138.69988168 344.71765423 143.75199127 C346.37442019 157.77735281 348.03018139 171.80283217 349.68231583 185.82874012 C349.78754447 186.72206976 349.89277311 187.61539939 350.0011905 188.53579963 C350.10664433 189.43104718 350.21209816 190.32629473 350.32074755 191.248671 C350.53437925 193.06228241 350.74801273 194.87589362 350.96164799 196.68950462 C351.06761361 197.58908487 351.17357924 198.48866511 351.28275595 199.41550536 C353.00325427 214.01975995 354.73102287 228.62314462 356.46187147 243.22617578 C358.24446125 258.26665435 360.02092102 273.30784675 361.79129487 288.34976822 C362.78323938 296.77656099 363.77777336 305.20302967 364.77911282 313.6287117 C365.63059567 320.79366787 366.47645401 327.95926046 367.31512233 335.12572836 C367.74242425 338.77561552 368.17227593 342.42515163 368.60933018 346.07388496 C369.08442643 350.04085382 369.54673247 354.00921402 370.00795841 357.97781944 C370.21500008 359.68110827 370.21500008 359.68110827 370.42622441 361.41880697 C372.77518904 381.96771863 372.77518904 381.96771863 369.72947025 388.76201439 C365.87739023 392.61409441 361.79629545 395.94741774 356.17144108 396.25726891 C355.32538807 396.25504829 354.47933506 396.25282768 353.60764408 396.25053978 C352.64687458 396.25046425 351.68610508 396.25038872 350.69622135 396.2503109 C349.6617638 396.24514961 348.62730625 396.23998833 347.5615015 396.23467064 C345.96975353 396.23254822 345.96975353 396.23254822 344.34584904 396.23038292 C340.9528609 396.22478045 337.55993848 396.21222753 334.16697025 396.19951439 C331.86814308 396.19449971 329.56931487 396.18993675 327.27048588 396.18584251 C321.63178864 396.17481022 315.99314059 396.15754391 310.35447025 396.13701439 C310.35447025 402.07701439 310.35447025 408.01701439 310.35447025 414.13701439 C317.76153811 414.07384333 325.168235 413.99822097 332.57494354 413.90129948 C336.01501863 413.85676861 339.45498 413.81747594 342.89524174 413.79057884 C346.85976678 413.75934472 350.82380621 413.70456334 354.788064 413.64873314 C356.62140545 413.63914825 356.62140545 413.63914825 358.4917841 413.62936974 C367.00039474 413.48424493 374.63609681 412.78044808 381.35447025 407.13701439 C382.01447025 407.13701439 382.67447025 407.13701439 383.35447025 407.13701439 C383.64064213 406.5453347 383.926814 405.95365501 384.22165775 405.34404564 C385.35447025 403.13701439 385.35447025 403.13701439 387.47947025 399.82451439 C393.35640214 387.78503267 388.27413962 369.03999725 386.72947025 356.35185814 C386.45956543 354.07848719 386.19053792 351.80501193 385.92234135 349.53143883 C385.21958113 343.59001656 384.50704142 337.64981262 383.79172611 331.70989037 C382.64469995 322.17343418 381.5114348 312.63534073 380.38065434 303.09694672 C379.98534423 299.77620167 379.58503291 296.45608801 379.1840601 293.13602257 C378.94124769 291.10243394 378.69856488 289.06882983 378.45603275 287.03520775 C378.34382389 286.11721901 378.23161503 285.19923027 378.1160059 284.25342369 C376.71000366 272.37224202 376.71000366 272.37224202 378.85447025 268.26201439 C381.8928494 265.67939212 383.49551299 265.57814516 387.35447025 265.57060814 C390.36199064 266.42234731 391.42113363 267.6654261 393.35447025 270.13701439 C394.20782116 273.02095269 394.49697854 275.93338714 394.8115015 278.91826439 C394.97447475 280.26378128 394.97447475 280.26378128 395.14074039 281.63648033 C395.49964257 284.63493926 395.83353811 287.63562442 396.16697025 290.63701439 C396.4137618 292.75396079 396.66200306 294.87073862 396.91159916 296.98735619 C397.44926843 301.56802156 397.9765911 306.14974441 398.49851322 310.73222923 C399.3109139 317.82163621 400.17563741 324.90423669 401.04843807 331.9863987 C401.5416951 336.00100879 402.02733513 340.01654544 402.51241875 344.03215027 C402.90579454 347.28723087 403.30280416 350.54178733 403.70569706 353.7957058 C409.40432157 400.01675907 409.40432157 400.01675907 396.553689 416.69170189 C389.85238762 424.14288247 380.15609474 428.48865814 370.35447025 430.13701439 C368.33073475 430.22154183 366.30452632 430.25480398 364.2790308 430.25053978 C363.07816334 430.25046425 361.87729588 430.25038872 360.64003849 430.2503109 C358.71010799 430.24256897 358.71010799 430.24256897 356.741189 430.23467064 C355.4031209 430.23280395 354.06505211 430.23138123 352.72698307 430.23038292 C349.21711155 430.22657753 345.70728187 430.21676427 342.1974268 430.20567894 C338.6111085 430.19542216 335.02478339 430.19087618 331.43845463 430.18584251 C324.41044273 430.17514011 317.3824585 430.1580876 310.35447025 430.13701439 C310.36446301 431.51097626 310.36446301 431.51097626 310.37465763 432.91269493 C310.43479594 441.54948606 310.48045854 450.18620675 310.50990677 458.82315922 C310.52555543 463.26339915 310.54677903 467.70346591 310.58078861 472.14360619 C310.61341069 476.42947464 310.63132929 480.71517663 310.63910198 485.00115967 C310.64464038 486.6354217 310.6554556 488.26967474 310.67166042 489.90386581 C310.69347297 492.19491625 310.69643564 494.48528093 310.69504642 496.77641869 C310.70503918 498.73166718 310.70503918 498.73166718 310.7152338 500.72641563 C310.22401822 505.3702863 308.76788048 507.97979566 305.17649174 510.92021751 C301.50728436 512.5023033 298.13139308 512.60469898 294.2021265 512.60576439 C293.42437366 512.61337791 292.64662083 512.62099144 291.84529972 512.62883568 C290.20556684 512.63960777 288.56576551 512.64250155 286.92600346 512.63799095 C284.42767955 512.63701856 281.93242933 512.67866758 279.43454838 512.72295189 C277.83624745 512.72815961 276.23793591 512.73084707 274.6396265 512.73076439 C273.89882343 512.74715965 273.15802036 512.76355492 272.39476871 512.78044701 C266.59042925 512.70374261 264.28331804 511.09611568 260.35447025 507.13701439 C258.0338918 503.76162756 258.35447025 502.6009885 258.35447025 498.13701439 C234.26447025 498.13701439 210.17447025 498.13701439 185.35447025 498.13701439 C184.69447025 501.10701439 184.03447025 504.07701439 183.35447025 507.13701439 C178.66699502 511.82448962 175.09534646 512.31128515 168.71384525 512.37529564 C167.95404362 512.38336739 167.19424198 512.39143913 166.41141605 512.39975548 C164.80082321 512.41359577 163.19020103 512.42431818 161.57956791 512.4321804 C159.12765915 512.44935199 156.67711366 512.49323072 154.225564 512.53740501 C152.65916765 512.54753595 151.09275985 512.5560508 149.52634525 512.56279564 C148.7980048 512.58030373 148.06966434 512.59781181 147.31925297 512.61585045 C142.17028819 512.59413921 139.21983036 511.52819451 135.35447025 508.13701439 C132.56002262 503.56828303 131.98590297 500.16479759 132.01389408 494.84648705 C132.013456 494.14335381 132.01301792 493.44022057 132.01256657 492.71578026 C132.01464298 490.41058856 132.03791837 488.10614024 132.0615015 485.80107689 C132.06710157 484.19539856 132.07136973 482.58971507 132.07436466 480.98402977 C132.08578116 476.77206155 132.11522046 472.56040709 132.1484766 468.34856224 C132.17924668 464.04501654 132.19288478 459.7414198 132.20798588 455.43779564 C132.24009355 447.00405842 132.2912508 438.57057551 132.35447025 430.13701439 C131.46786056 430.13977977 130.58125086 430.14254515 129.6677742 430.14539433 C108.06655564 430.21172862 86.46535471 430.26133119 64.86405563 430.2924509 C54.417708 430.30790125 43.97142847 430.3289557 33.52512455 430.36333275 C24.41714185 430.39329125 15.3092085 430.4126027 6.2011779 430.41927987 C1.38125359 430.42318121 -3.43852959 430.43231159 -8.25840855 430.45420456 C-12.80148927 430.47467171 -17.34437164 430.48082763 -21.88749409 430.47633743 C-23.54865633 430.47715808 -25.20982568 430.48306251 -26.87094784 430.49463081 C-41.41305318 430.59087755 -54.83268648 428.81489505 -66.1728735 418.76982689 C-73.66149898 410.46678856 -78.2434474 400.38804458 -78.05954647 389.15958214 C-78.05171495 388.36266675 -78.04388342 387.56575136 -78.03581458 386.74468702 C-77.71690131 373.50969788 -75.87191865 360.32825012 -74.3077873 347.19397366 C-73.81510597 343.03613677 -73.33521757 338.87681944 -72.85361385 334.71768761 C-71.91126365 326.59709811 -70.95727199 318.47791821 -69.99907275 310.35918523 C-68.88183178 300.88965162 -67.77575844 291.41882332 -66.66993395 281.94795095 C-64.69598716 265.04577455 -62.71115239 248.14489441 -60.72048092 231.2446804 C-58.79168747 214.86977147 -56.87195787 198.49383144 -54.96169186 182.11675072 C-52.87702968 164.24464131 -50.78739663 146.37312643 -48.68911344 128.50261062 C-48.4652207 126.59572591 -48.24133013 124.68884094 -48.01744175 122.78195572 C-47.90729948 121.84392332 -47.7971572 120.90589092 -47.68367728 119.9394333 C-46.90994667 113.34728196 -46.13962764 106.75473713 -45.37055683 100.16204071 C-44.43304999 92.12668723 -43.48976107 84.09203661 -42.53924223 76.05821157 C-42.05496361 71.96397503 -41.57313269 67.86949199 -41.09816265 63.7741642 C-40.66255966 60.01895978 -40.21958643 56.26469799 -39.77093843 52.51103043 C-39.53532064 50.52416906 -39.30733138 48.53640751 -39.07969826 46.54861552 C-37.2418748 31.3271581 -34.33269607 17.75880733 -21.899436 7.63701439 C-15.27668205 3.22949703 -7.97722951 0.01813515 0 0 Z M75.16697025 318.94951439 C65.02898274 329.63060838 59.19156452 343.15741219 59.256814 357.96904564 C59.26003666 359.2613308 59.26325932 360.55361595 59.26657963 361.88506126 C59.2749336 363.23987965 59.28339853 364.59469736 59.29197025 365.94951439 C59.29699026 367.32386174 59.30155229 368.69821084 59.30564213 370.07256126 C59.31741348 373.4273978 59.33534852 376.78221169 59.35447025 380.13701439 C66.28447025 380.13701439 73.21447025 380.13701439 80.35447025 380.13701439 C80.39314213 376.95431908 80.39314213 376.95431908 80.43259525 373.70732689 C80.47117039 371.61865873 80.51627979 369.53022471 80.56198978 367.44170189 C80.5899589 366.0065971 80.61129129 364.57134515 80.62546635 363.13603783 C80.74774795 351.44591698 82.02160147 341.73582605 90.366189 332.89092064 C98.08410922 326.08277491 107.0826659 323.6215783 117.22947025 323.82451439 C125.53071286 324.65463865 133.50479348 328.12093543 139.35447025 334.13701439 C144.4024008 341.03997509 147.58857216 347.78688715 147.63294315 356.43922997 C147.64410664 357.6843586 147.65527012 358.92948723 147.66677189 360.21234703 C147.66913644 361.57900017 147.67131217 362.94565365 147.67331791 364.31230736 C147.68262301 365.76145546 147.69279255 367.21059824 147.70375919 368.65973473 C147.73100773 372.58279674 147.74619329 376.50582295 147.75918722 380.4289546 C147.77484033 384.53294629 147.80162359 388.63686511 147.82721806 392.74080467 C147.87396728 400.50729902 147.91073003 408.27380715 147.94389093 416.04037011 C147.98213959 424.88440057 148.03154256 433.72835776 148.08187509 442.57232642 C148.18513758 460.76050294 148.27402079 478.94872364 148.35447025 497.13701439 C155.28447025 497.13701439 162.21447025 497.13701439 169.35447025 497.13701439 C169.42410928 478.60355824 169.47755209 460.07013942 169.50990677 441.53657913 C169.52533322 432.92987534 169.54634134 424.32325466 169.58078861 415.71660423 C169.61082096 408.20940183 169.63007589 400.70225967 169.63673574 393.19499886 C169.64062472 389.22507267 169.64967476 385.25531871 169.67166042 381.28544807 C169.69224503 377.53767878 169.69826045 373.79015026 169.6937933 370.04232979 C169.69499334 368.03396317 169.71101912 366.02562189 169.72773075 364.01732445 C169.67022343 346.85317855 165.77861677 331.98449337 153.70603275 319.38701439 C131.01776465 297.67863826 98.35466806 296.85764351 75.16697025 318.94951439 Z M206.4052515 314.26982689 C205.72849369 314.88599876 205.05173588 315.50217064 204.35447025 316.13701439 C203.66739994 316.73256126 202.98032963 317.32810814 202.272439 317.94170189 C193.03285258 326.45696127 187.43072989 337.8226469 185.35447025 350.13701439 C185.27418079 352.48612853 185.24681203 354.83733108 185.256814 357.18779564 C185.25822895 357.84660225 185.2596439 358.50540886 185.26110172 359.18417931 C185.26666525 361.27267201 185.27921079 363.3610545 185.29197025 365.44951439 C185.29698998 366.87203887 185.30155205 368.29456505 185.30564213 369.71709251 C185.31576861 373.19047565 185.33535067 376.66362275 185.35447025 380.13701439 C191.95447025 380.13701439 198.55447025 380.13701439 205.35447025 380.13701439 C205.3802515 378.3387722 205.40603275 376.54053001 205.43259525 374.68779564 C206.08475348 343.17048681 206.08475348 343.17048681 216.8427515 332.23467064 C225.75924265 324.78808316 235.03175463 323.26406126 246.35447025 324.13701439 C255.12771447 325.85908355 261.55359293 330.42681035 267.35447025 337.13701439 C272.02396152 344.37204224 273.47926284 350.66960842 273.42478275 359.23076439 C273.43336276 360.60447501 273.4438371 361.97817486 273.45603275 363.35185814 C273.47274722 365.49868408 273.47939878 367.64307469 273.45407963 369.78984642 C273.00141679 377.89223667 273.00141679 377.89223667 275.86740971 385.06303978 C277.64429455 386.27307711 279.42822495 387.19199142 281.35447025 388.13701439 C286.36984533 394.29876091 287.09144038 401.1328881 286.7646265 408.86748314 C286.19556914 413.40368327 285.183871 416.54910965 282.35447025 420.13701439 C280.99978395 421.1405919 279.63298711 422.12795343 278.256814 423.10185814 C274.69837328 426.16208473 273.73503036 428.22429001 273.3271265 432.89482689 C273.31526118 435.01740084 273.34625596 437.14058552 273.41697025 439.26201439 C273.39441166 440.33322533 273.37185307 441.40443626 273.34861088 442.50810814 C273.28475618 448.11688014 273.28475618 448.11688014 275.87571049 452.83550072 C277.70401041 454.1254745 277.70401041 454.1254745 279.64182377 455.16826439 C283.65839126 457.44021589 285.09240695 461.92082946 286.35447025 466.13701439 C287.24677743 473.11109941 287.45863419 480.18706428 283.77634525 486.39092064 C281.4868957 489.20241501 278.8094504 491.45883654 275.96384525 493.69170189 C275.16720463 494.40713158 275.16720463 494.40713158 274.35447025 495.13701439 C274.35447025 495.79701439 274.35447025 496.45701439 274.35447025 497.13701439 C280.95447025 497.13701439 287.55447025 497.13701439 294.35447025 497.13701439 C294.44727954 477.93438439 294.51855759 458.73181827 294.56171894 439.52900982 C294.58229699 430.61172703 294.61032599 421.69458662 294.65622807 412.77739525 C294.69624218 405.00028752 294.7219376 397.22328297 294.73082423 389.44607514 C294.73601445 385.33248593 294.74811263 381.21919177 294.77739048 377.10569763 C294.80479074 373.22409967 294.81286632 369.34291482 294.80690098 365.46122932 C294.80799033 364.04600393 294.81579666 362.63076293 294.83129215 361.21562195 C295.01289399 343.75599042 289.75006653 330.19185051 277.83884525 317.46123314 C258.46782763 299.33897608 227.08113519 296.65563713 206.4052515 314.26982689 Z M100.67673588 344.84404564 C95.41221344 351.8233745 95.64382706 358.2208109 95.97947025 366.69951439 C96.10322025 371.13388939 96.22697025 375.56826439 96.35447025 380.13701439 C108.23447025 380.13701439 120.11447025 380.13701439 132.35447025 380.13701439 C132.43697025 375.84701439 132.51947025 371.55701439 132.60447025 367.13701439 C132.65909428 365.13187767 132.65909428 365.13187767 132.71482182 363.08623314 C132.78116151 355.93866606 132.35751967 351.13804599 128.35447025 345.13701439 C126.66137212 343.28188625 126.66137212 343.28188625 124.79197025 342.19951439 C124.21318119 341.81924095 123.63439213 341.43896751 123.038064 341.04717064 C115.29643159 336.86201901 106.66874568 338.74740237 100.67673588 344.84404564 Z M225.47947025 346.01201439 C222.12455006 350.94572055 221.09809719 355.2688268 221.15915775 361.19170189 C221.16415287 362.19185326 221.16914799 363.19200462 221.17429447 364.22246361 C221.19250248 365.47301537 221.21071049 366.72356712 221.22947025 368.01201439 C221.27072025 372.01326439 221.31197025 376.01451439 221.35447025 380.13701439 C233.56447025 380.13701439 245.77447025 380.13701439 258.35447025 380.13701439 C258.43697025 376.01201439 258.51947025 371.88701439 258.60447025 367.63701439 C258.65909428 365.71018822 258.65909428 365.71018822 258.71482182 363.74443626 C258.79212321 355.73002723 257.90598419 350.16206351 252.538064 344.07842064 C251.96185307 343.62338158 251.38564213 343.16834251 250.79197025 342.69951439 C250.21318119 342.22642845 249.63439213 341.75334251 249.038064 341.26592064 C241.17638022 335.99439717 231.30404765 339.52128298 225.47947025 346.01201439 Z M185.35447025 396.13701439 C185.35447025 402.07701439 185.35447025 408.01701439 185.35447025 414.13701439 C195.5684294 414.20480846 205.78223894 414.25984107 215.99637222 414.2924509 C220.73927709 414.30810249 225.48201995 414.32933154 230.22483158 414.36333275 C234.80247241 414.39594424 239.37995746 414.41387122 243.9577055 414.42164612 C245.70360929 414.42718641 247.44950463 414.43800527 249.19534206 414.45420456 C251.64204507 414.47600281 254.08810558 414.47898034 256.53489017 414.47759056 C257.25562214 414.48837639 257.9763541 414.49916222 258.71892643 414.51027489 C263.11106765 414.48330439 265.87446465 413.85128603 269.35447025 411.13701439 C271.8547868 407.38653957 271.89050579 405.57845173 271.35447025 401.13701439 C268.64365874 397.53834482 267.17246859 396.2707994 262.67812443 395.53574181 C261.23587671 395.52134212 259.79319 395.53433354 258.35129642 395.56938744 C257.56052708 395.5686573 256.76975773 395.56792717 255.95502567 395.56717491 C253.3517891 395.57064718 250.75036137 395.60948869 248.147439 395.64873314 C246.33855511 395.65806261 244.52965855 395.66517809 242.72075748 395.67017174 C237.96768953 395.68923108 233.21538972 395.73832252 228.46262455 395.79369164 C223.60962152 395.84490719 218.75649396 395.86769069 213.90329838 395.89287376 C204.38663114 395.94644275 194.87073485 396.03436974 185.35447025 396.13701439 Z M185.35447025 430.13701439 C185.35447025 436.07701439 185.35447025 442.01701439 185.35447025 448.13701439 C209.44447025 448.13701439 233.53447025 448.13701439 258.35447025 448.13701439 C258.35447025 442.19701439 258.35447025 436.25701439 258.35447025 430.13701439 C234.26447025 430.13701439 210.17447025 430.13701439 185.35447025 430.13701439 Z M185.35447025 464.13701439 C185.35447025 470.07701439 185.35447025 476.01701439 185.35447025 482.13701439 C195.68152833 482.25005898 206.00817424 482.34175553 216.33571148 482.39607525 C221.13142385 482.42214849 225.92669029 482.45750483 230.72214603 482.51421165 C235.35169057 482.5686128 239.9808067 482.59845203 244.61064625 482.6114006 C246.37530478 482.62062598 248.13994036 482.63864141 249.90441608 482.66566467 C252.37997853 482.70206412 254.85378012 482.7069554 257.32956791 482.70464134 C258.41929905 482.73160591 258.41929905 482.73160591 259.53104496 482.75911522 C265.20998961 482.70182972 267.52951989 481.03981098 271.35447025 477.13701439 C272.41384382 474.07850039 271.88291823 472.46623664 271.35447025 469.13701439 C269.48431931 466.70581816 268.0730868 465.49632266 265.35447025 464.13701439 C262.82161975 464.04408511 260.31653433 464.01119755 257.78366947 464.023489 C257.00309177 464.02334297 256.22251408 464.02319695 255.41828251 464.02304649 C252.83187956 464.02374453 250.24554816 464.03153182 247.65915775 464.03935814 C245.86839684 464.04122271 244.07763542 464.04264643 242.28687382 464.04364586 C237.56862834 464.04746798 232.85041355 464.05729568 228.13218021 464.06834984 C223.31956237 464.0785705 218.50693957 464.08314489 213.694314 464.08818626 C204.24768376 464.09891821 194.80108435 464.11651256 185.35447025 464.13701439 Z " fill="#000000" transform="translate(91.64552974700928,-0.13701438903808594)"/>
<path d="M0 0 C0.639375 -0.00773438 1.27875 -0.01546875 1.9375 -0.0234375 C6.64967974 0.88686995 9.93786279 4.09826602 13.3125 7.3125 C21.89308185 15.09222754 29.73619704 16.87581992 41.16796875 16.65234375 C49.99924558 16.01317896 56.3525826 11.93828924 63 6.375 C63.58007812 5.89289063 64.16015625 5.41078125 64.7578125 4.9140625 C65.29148437 4.46804687 65.82515625 4.02203125 66.375 3.5625 C70.05329221 0.49725649 72.0517753 0.23179786 76.83203125 0.046875 C81.62525334 0.77233564 84.91820698 4.07954449 88.3125 7.3125 C96.89308185 15.09222754 104.73619704 16.87581992 116.16796875 16.65234375 C126.27336417 15.92096447 133.81889121 10.55610879 140.8125 3.5625 C143.79000096 0.58499904 145.62557402 0.40569065 149.8125 0.0625 C155.19159965 0.17008199 158.16607679 2.64394676 162.01953125 6.28125 C170.79535031 14.5191467 178.26023233 16.83778352 190.11132812 16.96069336 C193.26819661 17.02471326 195.62187977 17.17595751 198.44140625 18.66015625 C200.19828622 20.59316453 200.70730263 21.67857118 201.0625 24.25 C201.17722656 24.90742188 201.29195312 25.56484375 201.41015625 26.2421875 C200.70946526 29.88578062 198.92461679 31.2001893 196 33.375 C192.95771309 34.07606648 190.04695011 34.03989144 186.9375 33.9375 C185.66821655 33.91260498 185.66821655 33.91260498 184.37329102 33.88720703 C171.67485837 33.4198989 159.8300665 28.68670649 151 19.375 C147.82166979 20.84080526 145.17656437 22.66023374 142.375 24.75 C129.82025321 33.66461311 116.9480506 34.41330076 102 33.375 C92.40987918 31.67781444 82.66158056 26.56077051 76 19.375 C72.82166979 20.84080526 70.17656437 22.66023374 67.375 24.75 C54.82025321 33.66461311 41.9480506 34.41330076 27 33.375 C17.40987918 31.67781444 7.66158056 26.56077051 1 19.375 C-1.84647683 20.69211976 -4.09378117 22.18759443 -6.5 24.1875 C-15.44898911 31.0506345 -25.42195466 33.56626839 -36.4375 33.75 C-37.7069043 33.80607422 -37.7069043 33.80607422 -39.00195312 33.86328125 C-43.44771069 33.92594659 -45.40553882 33.81033774 -49.09375 31.109375 C-51.62572145 27.47744874 -51.62572145 27.47744874 -51.0625 24.25 C-50.97097656 23.58742187 -50.87945312 22.92484375 -50.78515625 22.2421875 C-49.6498828 19.54238299 -48.60398954 18.74574009 -46 17.375 C-43.24015135 17.10245777 -40.63500321 16.96642264 -37.875 16.9375 C-26.36173564 16.48948464 -19.6690672 13.67542454 -11.32421875 5.49609375 C-7.88417128 2.35668909 -4.78831737 -0.05792319 0 0 Z " fill="#000000" transform="translate(181,213.625)"/>
<path d="M0 0 C1.28205614 1.21745641 2.55414669 2.44555999 3.8125 3.6875 C11.33464742 10.43814512 19.934431 13.03074992 29.87109375 12.8984375 C37.61405356 12.34316548 43.30861967 9.87212052 49.21875 4.89453125 C50.8125 3.6875 50.8125 3.6875 52.8125 3.6875 C53.06 3.089375 53.3075 2.49125 53.5625 1.875 C55.0799706 -0.78057354 56.12464692 -1.82710751 58.8125 -3.3125 C64.99490652 -4.73141297 68.26495914 -4.35820871 73.8125 -1.3125 C75.75 0.25 75.75 0.25 76.8125 1.6875 C76.8125 2.3475 76.8125 3.0075 76.8125 3.6875 C77.38355469 3.9659375 77.95460938 4.244375 78.54296875 4.53125 C80.78846631 5.67525564 82.94783527 6.91909852 85.125 8.1875 C93.2979605 12.6925953 101.60649016 14.28639231 110.75390625 11.9296875 C117.77313562 9.50399463 123.17248043 6.45952055 128.3125 1.0625 C131.82377499 -2.51792483 134.64165004 -4.21850247 139.7890625 -4.37109375 C145.19800348 -4.05709156 147.12888636 -2.33877537 150.8125 1.6875 C158.22383678 7.87970809 164.83891856 11.47658353 174.33203125 13.125 C180.36831565 14.21718716 180.36831565 14.21718716 182.9375 16.9375 C184.0125388 20.31619338 183.77165715 22.29355931 182.8125 25.6875 C180.8125 28.6875 180.8125 28.6875 177.8125 29.6875 C164.28267245 29.96361893 153.5107571 25.65449865 143.0546875 17.26171875 C140.85989126 15.40019495 140.85989126 15.40019495 137.8125 15.6875 C136.26877847 16.8338952 136.26877847 16.8338952 134.75 18.375 C124.89418545 27.11739617 111.99550091 30.33948692 99.03515625 29.96875 C86.74057147 28.89576806 74.8442677 24.21750282 65.8125 15.6875 C62.94520634 16.67057211 60.85961854 17.64926576 58.4921875 19.5703125 C47.35914409 28.36639053 34.66707795 30.72289551 20.8125 29.6875 C8.99061714 27.89994719 -1.54441278 22.93771962 -10.1875 14.6875 C-11.06148437 15.46673828 -11.06148437 15.46673828 -11.953125 16.26171875 C-22.01687902 24.82223907 -34.69215685 30.74595829 -48.1875 29.6875 C-50.78998618 28.84345043 -51.82946906 28.1478255 -53.5 26 C-54.51672829 22.58009577 -54.06031149 20.11640226 -53.1875 16.6875 C-50.00429538 13.51952602 -46.77176499 13.01180858 -42.4375 12.25 C-32.20096937 10.20057011 -25.75925379 6.47695635 -18.5625 -1.0625 C-12.82991153 -6.49337328 -5.55519504 -4.90411358 0 0 Z " fill="#000000" transform="translate(191.1875,156.3125)"/>
<path d="M0 0 C1.69831298 1.59002242 3.38426802 3.19333166 5.05859375 4.80859375 C12.58403175 11.66796038 21.48966758 14.6363878 31.60546875 14.4140625 C42.09495536 13.30990602 50.01494311 8.76686781 57.26171875 1.3515625 C60.19169633 -1.4992265 62.34051626 -2.86204316 66.4921875 -2.9296875 C72.74571333 -2.46037975 75.68709877 0.16605483 80.01171875 4.6015625 C86.85250466 11.27549998 94.58676601 14.18133766 104.07421875 14.4765625 C114.6497245 14.11857641 122.01811817 10.42888246 129.56640625 3.19140625 C135.3275666 -2.26712506 135.3275666 -2.26712506 139.69921875 -3.0234375 C146.12681877 -2.81609556 149.25955953 -0.25234245 153.82421875 3.9765625 C159.42338571 9.11384532 165.63978288 11.88292962 172.57421875 14.7890625 C175.57421875 16.1015625 175.57421875 16.1015625 177.57421875 18.1015625 C178.35670594 25.03216334 178.35670594 25.03216334 175.69921875 28.6640625 C170.98115479 30.83437192 167.53631447 30.45843676 162.57421875 29.1015625 C156.38864369 26.54975761 150.39125236 23.75901438 145.27734375 19.375 C142.906146 16.92331149 142.906146 16.92331149 140.57421875 16.9765625 C138.37949029 18.12115278 138.37949029 18.12115278 136.07421875 20.2890625 C126.02125069 29.02194385 113.81018584 31.60560581 100.8671875 31.34765625 C88.56606637 30.42835538 76.58492214 25.61167126 67.57421875 17.1015625 C64.33592825 18.61927638 61.47391806 20.47849581 58.51171875 22.4765625 C46.54304106 30.15699738 33.57078875 32.74201163 19.484375 30.640625 C11.11136683 28.77017639 1.49996219 25.66969521 -4.42578125 19.1640625 C-5.08578125 18.4834375 -5.74578125 17.8028125 -6.42578125 17.1015625 C-10.01379706 17.42287735 -12.29625296 19.29562093 -15.11328125 21.4140625 C-22.51808966 26.69391857 -30.05215488 30.73844652 -39.42578125 30.1015625 C-42.55078125 28.6640625 -42.55078125 28.6640625 -44.42578125 26.1015625 C-45.12096578 23.26868553 -45.12239376 20.93484364 -44.42578125 18.1015625 C-41.6274715 14.62779867 -38.2768836 13.66376581 -34.17578125 12.2890625 C-27.04682999 9.84869374 -21.77214332 5.63631148 -16.61328125 0.2265625 C-11.82645963 -4.42349278 -5.14697307 -4.02806588 0 0 Z " fill="#000000" transform="translate(189.42578125,92.8984375)"/>
</svg>
