<?xml version="1.0" standalone="no"?>
<!DOCTYPE svg PUBLIC "-//W3C//DTD SVG 20010904//EN"
 "http://www.w3.org/TR/2001/REC-SVG-20010904/DTD/svg10.dtd">
<svg version="1.0" xmlns="http://www.w3.org/2000/svg"
 width="512.000000pt" height="512.000000pt" viewBox="0 0 512.000000 512.000000"
 preserveAspectRatio="xMidYMid meet">

<g transform="translate(0.000000,512.000000) scale(0.100000,-0.100000)"
fill="#000000" stroke="none">
<path d="M0 3040 l0 -1520 62 0 62 0 -52 -53 -52 -52 398 -398 397 -397 450
450 450 450 182 0 183 0 0 -136 c0 -170 -9 -204 -75 -269 -56 -57 -102 -75
-189 -75 l-56 0 0 -240 0 -240 800 0 800 0 0 240 0 240 -56 0 c-87 0 -133 18
-189 75 -66 65 -75 99 -75 269 l0 136 1040 0 1040 0 0 1520 0 1520 -2560 0
-2560 0 0 -1520z m4960 0 l0 -1360 -1542 0 -1543 0 80 80 80 80 1382 0 1383 0
0 1200 0 1200 -2240 0 -2240 0 0 -1200 0 -1200 62 0 63 0 -80 -80 -80 -80 -62
0 -63 0 0 1360 0 1360 2400 0 2400 0 0 -1360z m-320 0 l0 -1040 -1302 0 -1303
0 -357 357 -358 358 -358 -358 -357 -357 -63 0 -62 0 0 1040 0 1040 2080 0
2080 0 0 -1040z m-3035 -840 l280 -280 -538 -538 -537 -537 -282 283 -283 282
535 535 c294 294 537 535 540 535 3 0 131 -126 285 -280z m1276 -848 l4 -168
36 -72 35 -72 -396 0 -396 0 35 72 36 72 4 168 3 168 318 0 318 0 3 -168z
m319 -552 l0 -80 -640 0 -640 0 0 80 0 80 640 0 640 0 0 -80z"/>
<path d="M1800 3841 l0 -78 93 -7 c329 -23 635 -143 882 -347 329 -271 531
-664 561 -1093 l7 -96 78 0 79 0 0 43 c0 209 -70 490 -174 702 -259 528 -763
881 -1348 944 -54 6 -115 11 -138 11 l-40 0 0 -79z"/>
<path d="M1800 3361 l0 -78 86 -7 c172 -14 344 -73 496 -171 100 -65 260 -230
321 -332 87 -146 140 -309 153 -470 l7 -83 78 0 79 0 0 43 c0 75 -28 232 -59
328 -59 183 -155 342 -291 480 -143 144 -298 243 -479 303 -109 36 -266 66
-348 66 l-43 0 0 -79z"/>
<path d="M1800 2881 l0 -81 28 0 c54 -1 160 -29 228 -61 95 -46 217 -168 263
-263 32 -68 60 -174 61 -228 l0 -28 81 0 82 0 -7 71 c-17 171 -91 324 -216
449 -125 125 -278 199 -449 216 l-71 7 0 -82z"/>
<path d="M1237 2172 l-57 -58 55 -54 55 -55 58 58 57 57 -55 55 -55 55 -58
-58z"/>
<path d="M1010 1945 l-54 -55 54 -55 54 -55 58 57 58 57 -52 53 c-29 29 -55
53 -58 53 -3 0 -30 -25 -60 -55z"/>
<path d="M1460 1945 l-54 -55 54 -55 54 -55 58 57 58 57 -52 53 c-29 29 -55
53 -58 53 -3 0 -30 -25 -60 -55z"/>
<path d="M787 1722 l-57 -58 55 -54 55 -55 58 58 57 57 -55 55 -55 55 -58 -58z"/>
<path d="M1237 1722 l-57 -58 55 -54 55 -55 58 58 57 57 -55 55 -55 55 -58
-58z"/>
<path d="M560 1495 l-55 -55 55 -55 55 -55 55 55 55 55 -55 55 -55 55 -55 -55z"/>
<path d="M1010 1495 l-54 -55 54 -55 54 -55 58 57 58 57 -52 53 c-29 29 -55
53 -58 53 -3 0 -30 -25 -60 -55z"/>
<path d="M782 1267 l-52 -53 55 -54 55 -54 55 54 55 54 -52 53 c-29 29 -55 53
-58 53 -3 0 -29 -24 -58 -53z"/>
</g>
</svg>
